<?xml version="1.0" standalone="no"?>
<!DOCTYPE svg PUBLIC "-//W3C//DTD SVG 20010904//EN"
 "http://www.w3.org/TR/2001/REC-SVG-20010904/DTD/svg10.dtd">
<svg version="1.0" xmlns="http://www.w3.org/2000/svg"
 width="900.000000pt" height="690.000000pt" viewBox="0 0 900.000000 690.000000"
 preserveAspectRatio="xMidYMid meet">
<metadata>
Created by potrace 1.10, written by Peter Selinger 2001-2011
</metadata>
<g transform="translate(0.000000,690.000000) scale(0.100000,-0.100000)"
fill="#f9f5f5" stroke="none">
<path d="M6266 6804 c-3 -9 -9 -57 -13 -106 -3 -49 -10 -91 -15 -94 -4 -3 -8
-17 -8 -32 0 -15 -7 -40 -15 -56 -8 -15 -15 -33 -15 -38 0 -20 -69 -124 -112
-168 -62 -64 -137 -120 -190 -141 -16 -6 -28 -15 -28 -20 0 -5 -11 -9 -24 -9
-13 0 -29 -7 -36 -15 -7 -8 -25 -15 -39 -15 -15 0 -36 -7 -47 -15 -10 -8 -32
-15 -49 -15 -16 0 -39 -7 -49 -15 -11 -8 -38 -15 -61 -15 -23 0 -50 -7 -61
-15 -10 -8 -41 -15 -69 -15 -27 0 -61 -7 -75 -15 -14 -8 -48 -14 -76 -15 -28
0 -59 -6 -70 -15 -11 -8 -41 -15 -70 -15 -28 0 -59 -6 -70 -15 -10 -8 -37 -15
-60 -15 -22 0 -49 -7 -60 -15 -10 -8 -33 -15 -50 -15 -16 0 -39 -7 -50 -15
-10 -8 -28 -15 -39 -15 -11 0 -29 -6 -40 -14 -11 -7 -32 -16 -47 -20 -16 -3
-28 -11 -28 -16 0 -6 -11 -10 -25 -10 -14 0 -28 -7 -31 -15 -4 -8 -12 -15 -20
-15 -16 0 -126 -83 -177 -134 -59 -58 -146 -175 -166 -223 -6 -11 -15 -24 -20
-28 -6 -3 -11 -17 -11 -29 0 -13 -7 -29 -15 -36 -8 -7 -15 -20 -15 -29 0 -10
-7 -26 -15 -37 -8 -10 -15 -29 -15 -41 0 -12 -6 -34 -14 -50 -21 -41 -37 -110
-45 -182 -6 -69 -25 -91 -34 -41 -9 41 -36 80 -56 80 -27 0 -58 41 -64 85 -3
22 -12 67 -20 100 -28 116 -45 136 -79 96 -31 -37 -30 -55 7 -91 34 -33 35
-35 35 -117 0 -88 16 -134 66 -188 31 -34 41 -80 49 -240 5 -77 13 -141 21
-157 8 -15 14 -44 14 -65 0 -21 7 -47 15 -57 8 -11 15 -30 15 -42 0 -12 6 -35
14 -51 7 -15 20 -44 28 -63 27 -63 103 -211 121 -234 4 -6 31 -47 60 -91 28
-44 54 -82 58 -85 3 -3 23 -30 44 -60 21 -30 45 -61 52 -68 7 -7 13 -18 13
-23 0 -5 9 -9 20 -9 24 0 28 38 5 46 -8 4 -15 14 -15 24 0 11 -4 21 -9 24 -5
3 -31 42 -58 87 -26 44 -56 93 -65 107 -10 15 -29 50 -43 77 -14 28 -30 57
-34 65 -5 8 -17 33 -26 55 -10 22 -22 47 -27 55 -4 8 -10 20 -12 25 -1 6 -9
26 -16 45 -7 19 -15 51 -18 70 -2 19 -11 44 -18 55 -8 11 -14 38 -14 61 0 22
-7 63 -15 90 -20 66 -20 233 0 281 8 19 15 52 15 72 1 20 7 47 15 61 8 14 14
36 15 48 0 13 6 36 13 50 14 27 39 83 51 112 3 8 15 29 26 45 11 17 23 37 27
45 10 23 86 120 130 165 21 23 70 64 108 93 39 28 75 56 82 62 7 5 16 10 21
10 5 0 15 7 22 15 7 8 20 15 30 15 10 0 23 7 30 15 7 8 22 15 34 15 12 0 31 7
42 15 10 8 31 15 45 15 15 0 32 7 39 15 7 8 27 15 44 15 18 0 41 7 52 15 10 8
35 15 55 15 19 0 44 7 55 15 10 8 37 15 60 15 22 0 49 7 60 15 10 8 37 15 60
15 22 0 49 7 60 15 10 8 37 15 59 15 22 0 49 7 59 15 11 8 36 15 56 15 20 0
45 7 56 15 10 8 33 15 50 15 17 0 37 7 44 15 7 8 27 15 45 15 18 0 38 7 45 15
7 8 19 15 27 15 13 0 47 15 93 41 8 5 25 13 37 18 11 6 24 15 28 20 3 6 13 11
21 11 33 0 203 170 233 234 13 25 27 48 32 52 5 3 9 14 9 25 0 11 6 30 12 42
7 12 18 47 25 77 6 30 17 78 23 105 18 80 -3 274 -24 219z"/>
<path d="M6417 6304 c-4 -22 -7 -65 -7 -97 0 -53 -14 -103 -41 -147 -5 -8 -13
-24 -18 -36 -9 -19 -65 -83 -163 -186 -56 -59 -108 -124 -108 -135 0 -6 -7
-13 -15 -17 -8 -3 -15 -14 -15 -24 0 -11 -7 -25 -15 -32 -8 -7 -15 -23 -15
-35 0 -12 -7 -28 -15 -35 -8 -7 -15 -21 -15 -30 0 -16 -15 -52 -42 -100 -4 -8
-11 -22 -14 -30 -12 -31 -15 -36 -34 -65 -11 -16 -23 -36 -26 -43 -4 -7 -60
-67 -125 -132 -66 -65 -119 -125 -119 -133 0 -8 -7 -20 -15 -27 -8 -7 -15 -23
-15 -35 0 -12 -7 -28 -15 -35 -8 -7 -15 -23 -15 -35 0 -12 -7 -28 -15 -35 -8
-7 -15 -18 -15 -24 0 -15 -88 -186 -106 -207 -8 -8 -14 -21 -14 -27 0 -22
-185 -197 -232 -220 -26 -13 -50 -27 -53 -33 -4 -5 -18 -9 -33 -9 -15 0 -36
-7 -46 -15 -11 -8 -35 -15 -54 -15 -18 0 -42 -5 -53 -11 -11 -6 -50 -14 -87
-19 -141 -19 -177 -32 -226 -82 -47 -47 -59 -78 -30 -78 9 0 45 8 80 17 52 14
70 15 97 5 18 -7 43 -12 55 -12 26 0 132 -103 132 -128 0 -10 7 -27 15 -38 20
-27 21 -312 0 -369 -8 -22 -14 -65 -15 -95 0 -30 -7 -66 -15 -80 -21 -37 -21
-368 0 -396 8 -10 15 -26 15 -34 1 -60 142 -237 227 -286 44 -25 51 -12 17 31
-63 79 -93 121 -93 131 -1 6 -8 17 -16 24 -8 7 -15 20 -15 30 0 10 -7 23 -15
30 -8 7 -15 27 -15 44 -1 17 -7 42 -15 56 -20 35 -20 196 0 243 8 20 15 56 15
79 0 24 7 52 15 62 8 11 15 38 15 61 0 23 6 47 12 53 17 17 30 126 31 262 1
160 -18 222 -83 280 -39 34 -103 70 -128 70 -9 0 -26 7 -36 15 -11 8 -34 15
-52 15 -36 0 -52 14 -32 27 7 4 67 11 133 15 218 13 290 21 310 34 11 8 29 14
42 14 12 0 25 5 28 10 4 6 22 17 41 25 37 15 169 137 185 170 11 24 32 58 40
65 11 10 49 91 49 105 0 8 5 15 10 15 6 0 10 11 10 24 0 13 6 29 14 35 8 7 17
27 20 46 4 19 11 35 16 35 6 0 10 5 10 11 0 45 102 194 209 304 37 39 84 96
105 128 21 31 42 60 47 63 5 3 9 13 9 24 0 10 7 20 15 24 8 3 15 18 15 33 0
15 7 37 15 47 8 11 15 34 15 52 0 17 7 37 15 44 8 7 15 21 15 30 0 23 31 82
48 93 6 4 12 16 12 26 0 10 13 31 30 47 16 16 30 33 30 37 0 5 20 35 45 67 25
32 45 63 45 68 0 5 7 15 15 22 8 7 15 19 15 28 0 8 6 23 13 31 16 19 37 129
37 192 0 24 -9 70 -19 103 l-18 59 -6 -39z"/>
<path d="M1975 5870 c-12 -20 -17 -137 -7 -185 23 -110 46 -179 73 -225 5 -8
12 -22 16 -30 11 -26 67 -94 102 -125 19 -16 41 -38 50 -47 8 -10 23 -18 32
-18 9 0 22 -7 29 -15 7 -8 18 -15 25 -15 7 0 18 -7 25 -15 7 -8 25 -15 40 -15
15 0 33 -7 40 -15 7 -8 29 -15 49 -15 20 0 45 -7 55 -15 14 -10 44 -15 96 -15
45 0 81 -5 88 -12 8 -8 91 -14 269 -18 161 -4 269 -11 286 -18 16 -7 54 -12
85 -12 34 -1 65 -7 76 -15 11 -8 36 -15 55 -15 20 0 45 -7 55 -15 11 -8 27
-15 37 -15 9 0 22 -7 29 -15 7 -8 19 -15 27 -15 34 0 236 -173 254 -218 9 -24
29 -22 29 4 0 13 -19 48 -42 79 -5 6 -32 41 -61 80 -63 83 -158 163 -247 206
-36 18 -77 38 -92 45 -14 8 -40 14 -58 14 -17 0 -43 6 -58 14 -17 8 -82 16
-172 20 -80 4 -185 11 -235 16 -49 5 -148 9 -220 10 -93 0 -137 5 -155 15 -14
8 -43 15 -65 15 -22 0 -49 7 -59 15 -11 8 -27 15 -35 15 -9 0 -45 15 -81 32
-94 48 -197 153 -243 249 -21 41 -37 85 -37 96 0 12 -4 25 -10 28 -5 3 -10 23
-10 44 0 21 -3 59 -6 85 -6 44 -16 57 -29 36z"/>
<path d="M1939 5243 c-15 -37 -4 -195 16 -233 8 -16 15 -40 15 -53 0 -14 7
-30 15 -37 8 -7 15 -21 15 -31 0 -10 5 -21 11 -24 5 -4 15 -17 20 -28 5 -12
16 -32 23 -44 18 -32 127 -142 151 -154 33 -15 60 -33 68 -46 4 -7 16 -13 26
-13 10 0 24 -7 31 -15 7 -8 20 -15 30 -15 10 0 23 -7 30 -15 7 -8 23 -15 35
-15 12 0 28 -7 35 -15 7 -8 25 -15 40 -15 15 0 33 -7 40 -15 7 -8 29 -15 49
-15 20 -1 47 -7 61 -15 14 -8 40 -14 58 -15 17 0 32 -4 32 -9 0 -5 12 -13 28
-19 45 -16 138 -117 197 -214 68 -112 207 -268 239 -268 8 0 19 -7 26 -15 7
-8 22 -15 34 -15 12 0 31 -7 42 -15 28 -21 302 -21 330 0 10 8 29 15 40 15 12
0 27 7 34 15 7 8 18 15 26 15 7 0 19 6 26 13 19 19 103 67 116 67 18 0 14 -14
-10 -42 -65 -72 -73 -89 -72 -170 1 -68 6 -86 39 -150 37 -74 83 -126 199
-223 134 -113 123 -101 236 -242 6 -7 10 -16 10 -21 0 -5 7 -15 15 -22 8 -7
15 -20 15 -30 0 -10 7 -23 15 -30 8 -7 15 -24 15 -39 0 -14 7 -46 16 -71 18
-52 12 -157 -12 -215 -21 -52 -19 -95 6 -95 13 0 22 9 26 28 4 15 10 32 15 37
42 55 60 395 23 426 -8 6 -14 22 -14 35 0 12 -5 26 -11 29 -6 4 -13 15 -17 25
-14 38 -105 136 -265 288 -48 46 -99 101 -114 123 -14 21 -30 39 -34 39 -5 0
-9 8 -9 17 0 9 -6 24 -13 32 -7 9 -19 40 -26 68 -21 85 15 165 90 199 22 9 39
22 39 29 0 14 -75 45 -108 45 -13 0 -39 -7 -59 -15 -19 -8 -48 -15 -63 -15
-15 0 -33 -7 -40 -15 -7 -8 -29 -15 -49 -15 -20 -1 -47 -7 -61 -15 -37 -21
-253 -21 -270 0 -7 8 -25 15 -41 15 -16 0 -29 4 -29 10 0 5 -15 16 -33 25 -57
27 -121 99 -212 236 -82 125 -183 239 -211 239 -6 0 -17 7 -24 15 -7 8 -25 15
-40 15 -15 0 -41 7 -56 15 -16 8 -51 15 -79 15 -27 1 -61 7 -75 15 -14 8 -38
15 -55 15 -16 0 -39 7 -49 15 -11 8 -28 15 -37 15 -10 0 -30 7 -46 14 -15 8
-35 18 -43 21 -8 3 -28 14 -45 25 -16 11 -36 23 -43 26 -43 21 -174 154 -198
202 -10 20 -25 41 -31 45 -7 4 -13 18 -13 30 0 12 -7 31 -15 41 -8 11 -15 30
-15 42 0 13 -4 25 -9 28 -4 3 -11 37 -15 76 -8 77 -20 96 -37 53z"/>
<path d="M6110 4895 c-14 -8 -46 -14 -71 -15 -25 0 -54 -7 -65 -15 -10 -8 -38
-15 -60 -15 -24 0 -47 -6 -54 -15 -7 -8 -26 -15 -42 -15 -18 0 -31 -6 -34 -17
-3 -10 -12 -31 -19 -48 -46 -102 -59 -128 -79 -157 -12 -18 -25 -41 -29 -51
-9 -24 18 -33 38 -13 9 9 22 16 29 16 8 0 19 7 26 15 7 8 23 15 35 15 12 0 28
7 35 15 7 8 23 15 35 15 12 0 28 7 35 15 7 8 25 15 40 15 15 0 33 7 40 15 7 8
25 15 40 15 15 0 33 7 40 15 7 8 29 15 49 15 20 0 45 7 55 15 11 8 38 15 61
15 23 0 47 6 53 13 38 37 482 36 549 -1 12 -7 30 -12 40 -12 10 0 45 -14 77
-30 32 -17 69 -30 82 -30 13 0 24 -4 24 -10 0 -5 8 -10 18 -10 16 1 16 1 0 14
-10 7 -18 18 -18 25 0 6 -6 11 -13 11 -8 0 -25 9 -38 20 -40 33 -53 41 -141
86 -16 8 -41 21 -57 29 -16 8 -37 15 -48 15 -10 0 -27 7 -37 15 -11 8 -36 15
-56 15 -20 0 -45 7 -56 15 -28 21 -447 21 -484 0z"/>
<path d="M7035 4573 c-11 -3 -24 -9 -29 -14 -6 -5 -44 -9 -85 -9 -51 -1 -82
-6 -95 -15 -12 -9 -41 -15 -71 -15 -30 0 -59 -6 -71 -15 -10 -8 -39 -15 -64
-15 -25 0 -56 -7 -70 -15 -14 -8 -41 -14 -61 -15 -19 0 -44 -7 -55 -15 -10 -8
-35 -15 -55 -15 -20 0 -42 -7 -49 -15 -7 -8 -29 -15 -50 -15 -21 0 -43 -7 -50
-15 -7 -8 -27 -15 -45 -15 -18 0 -38 -7 -45 -15 -7 -8 -27 -15 -45 -15 -18 0
-38 -7 -45 -15 -7 -8 -27 -15 -45 -15 -18 0 -38 -7 -45 -15 -7 -8 -22 -15 -34
-15 -12 0 -31 -7 -42 -15 -10 -8 -31 -15 -45 -15 -15 0 -32 -7 -39 -15 -7 -8
-23 -15 -35 -15 -12 0 -28 -7 -35 -15 -7 -8 -25 -15 -40 -15 -15 0 -33 -7 -40
-15 -7 -8 -23 -15 -35 -15 -12 0 -28 -7 -35 -15 -7 -8 -23 -15 -35 -15 -12 0
-28 -7 -35 -15 -7 -8 -22 -15 -34 -15 -12 0 -31 -7 -42 -15 -10 -8 -29 -15
-40 -15 -12 0 -27 -7 -34 -15 -7 -8 -23 -15 -35 -15 -12 0 -28 -7 -35 -15 -7
-8 -18 -15 -26 -15 -22 0 -84 -33 -84 -44 0 -6 7 -20 15 -30 11 -14 15 -46 15
-108 0 -48 4 -88 9 -88 4 0 33 14 64 30 31 17 63 30 71 30 7 0 19 7 26 15 7 8
23 15 35 15 12 0 28 7 35 15 7 8 23 15 35 15 12 0 28 7 35 15 7 8 23 15 36 15
12 0 29 7 38 15 8 8 26 15 39 15 14 0 27 7 31 15 3 8 16 15 29 15 13 0 32 7
43 15 10 8 29 15 40 15 12 0 27 7 34 15 7 8 22 15 34 15 12 0 31 7 42 15 10 8
29 15 40 15 12 0 27 7 34 15 7 8 25 15 40 15 15 0 33 7 40 15 7 8 24 15 39 15
14 0 35 7 45 15 11 8 32 15 47 15 14 0 32 7 39 15 7 8 24 15 39 15 14 0 35 7
45 15 11 8 34 15 52 15 17 0 37 7 44 15 7 8 27 15 44 15 18 0 41 7 52 15 10 8
35 15 55 15 20 0 42 7 49 15 7 9 29 15 54 15 23 0 51 7 62 15 10 8 37 15 60
15 22 0 49 7 60 15 10 8 42 15 69 15 28 0 61 7 75 15 14 8 49 14 78 15 29 0
69 7 89 15 52 22 539 22 567 0 11 -8 36 -15 57 -15 20 0 42 -7 49 -15 7 -8 23
-15 37 -15 13 0 26 -7 29 -15 4 -8 12 -15 19 -15 7 0 30 -16 51 -35 44 -39 52
-42 60 -20 10 24 -151 204 -182 205 -6 0 -17 7 -24 15 -7 8 -20 15 -30 15 -10
0 -23 7 -30 15 -7 8 -22 15 -34 15 -11 0 -30 7 -40 15 -11 8 -36 15 -55 15
-20 1 -47 7 -61 15 -20 11 -73 14 -260 13 -129 0 -244 -2 -255 -5z"/>
<path d="M7175 4218 c-15 -29 -37 -67 -51 -85 -13 -17 -24 -35 -24 -40 0 -5
-8 -16 -17 -25 -10 -9 -47 -46 -83 -82 -36 -36 -69 -66 -73 -66 -5 0 -23 -11
-42 -26 -36 -27 -163 -94 -180 -94 -5 0 -22 -6 -37 -14 -14 -8 -45 -17 -67
-21 -23 -4 -43 -11 -47 -16 -3 -5 -24 -9 -48 -9 -23 0 -51 -7 -62 -15 -10 -8
-41 -15 -69 -15 -27 0 -63 -7 -79 -15 -15 -8 -51 -15 -80 -15 -29 0 -59 -7
-70 -15 -11 -9 -42 -15 -70 -15 -29 0 -59 -7 -70 -15 -11 -8 -41 -15 -66 -15
-25 0 -55 -7 -66 -15 -10 -8 -35 -15 -55 -15 -19 0 -44 -7 -55 -15 -10 -8 -33
-15 -50 -15 -16 0 -39 -7 -50 -15 -10 -8 -27 -15 -36 -15 -14 0 -52 -16 -98
-42 -8 -4 -22 -11 -30 -14 -8 -3 -22 -10 -30 -15 -8 -5 -22 -12 -30 -16 -48
-21 -139 -106 -140 -131 0 -7 -7 -15 -15 -18 -8 -4 -15 -15 -15 -25 0 -11 -6
-30 -14 -42 -15 -24 -31 -202 -20 -230 11 -30 33 -19 40 21 11 63 62 139 128
192 33 27 68 49 77 50 9 0 22 7 29 15 7 8 20 15 29 15 10 0 26 7 37 15 10 8
31 15 45 15 15 0 32 7 39 15 7 8 29 15 50 15 21 0 43 7 50 15 8 9 30 15 59 15
26 0 56 7 67 15 11 8 42 15 74 15 30 0 66 7 80 15 14 8 53 15 90 15 37 0 76 7
90 15 14 8 53 15 90 15 37 0 76 7 90 15 14 8 50 14 81 15 32 0 63 6 75 15 10
8 40 15 65 15 29 0 51 6 59 15 7 8 27 15 45 15 18 0 38 7 45 15 7 8 21 15 31
15 37 0 141 66 201 128 57 58 92 110 119 172 6 14 17 37 25 52 8 14 14 37 14
50 0 13 7 33 15 44 8 10 15 35 15 54 0 19 9 53 20 75 23 48 25 78 6 94 -12 10
-19 3 -41 -41z m-330 -451 c13 -10 15 -16 6 -21 -12 -8 -41 10 -41 25 0 13 13
11 35 -4z m-210 -87 c-3 -5 -12 -10 -20 -10 -8 0 -17 5 -20 10 -4 6 5 10 20
10 15 0 24 -4 20 -10z m-75 -40 c0 -11 -6 -20 -14 -20 -18 0 -29 16 -21 30 11
18 35 11 35 -10z"/>
<path d="M1835 4251 c-55 -3 -110 -12 -122 -18 -12 -7 -46 -13 -75 -13 -32 0
-62 -6 -74 -15 -10 -8 -38 -15 -60 -15 -24 0 -47 -6 -54 -15 -7 -8 -27 -15
-44 -15 -18 0 -41 -7 -52 -15 -10 -8 -31 -15 -45 -15 -15 0 -32 -7 -39 -15 -7
-8 -25 -15 -40 -15 -15 0 -33 -7 -40 -15 -7 -8 -20 -15 -30 -15 -10 0 -23 -7
-30 -15 -7 -8 -23 -15 -37 -15 -13 0 -26 -7 -29 -15 -4 -8 -14 -15 -24 -15
-10 0 -23 -7 -30 -15 -7 -8 -20 -15 -30 -15 -10 0 -23 -7 -30 -15 -7 -8 -17
-15 -22 -15 -6 0 -27 -13 -48 -30 -21 -16 -41 -30 -45 -30 -20 0 -202 -150
-299 -246 -115 -115 -243 -277 -279 -354 -4 -8 -16 -28 -27 -45 -11 -16 -22
-37 -26 -45 -3 -8 -10 -22 -15 -30 -5 -8 -12 -22 -15 -30 -3 -8 -10 -22 -15
-30 -5 -8 -12 -22 -15 -30 -3 -8 -12 -28 -20 -43 -7 -16 -14 -37 -14 -47 0 -9
-6 -23 -14 -29 -8 -7 -17 -27 -20 -46 -4 -19 -13 -47 -21 -62 -8 -15 -15 -35
-15 -44 0 -9 -7 -30 -16 -48 -18 -36 -12 -81 11 -81 8 0 17 12 21 28 3 15 12
41 20 59 8 17 14 34 14 39 0 14 63 139 86 171 13 17 24 39 24 48 0 8 7 18 15
21 8 4 15 12 15 19 0 7 7 15 15 19 8 3 15 11 15 17 0 52 353 387 503 478 20
12 37 26 37 31 0 4 8 11 18 14 23 9 61 31 75 45 6 6 19 11 29 11 10 0 21 7 24
15 4 8 14 15 24 15 11 0 22 5 25 11 4 5 17 14 28 20 12 5 30 13 40 19 9 5 25
15 35 20 9 6 24 13 32 16 8 3 28 12 43 20 16 7 37 14 48 14 11 0 22 7 25 15 4
8 18 15 34 15 15 0 33 7 40 15 7 8 22 15 34 15 12 0 31 7 42 15 10 8 31 15 45
15 14 0 34 7 45 15 10 8 33 15 50 15 17 0 37 7 44 15 8 9 30 15 60 15 30 0 52
6 60 15 8 10 30 15 62 15 27 0 61 6 76 14 68 35 596 35 647 0 11 -8 33 -14 50
-14 16 0 39 -7 49 -15 11 -8 30 -15 42 -15 12 0 27 -7 34 -15 7 -8 20 -15 30
-15 10 0 23 -7 30 -15 7 -8 18 -15 25 -15 7 0 44 -29 83 -66 55 -50 79 -82
107 -140 53 -109 68 -98 58 43 -3 48 -11 99 -19 113 -7 14 -15 32 -19 40 -16
39 -38 68 -100 126 -37 35 -73 64 -80 64 -7 0 -18 7 -25 15 -7 8 -20 15 -30
15 -10 0 -23 7 -30 15 -7 8 -23 15 -35 15 -12 0 -28 7 -35 15 -7 8 -27 15 -45
15 -18 0 -38 7 -45 15 -8 9 -30 15 -59 15 -26 0 -56 6 -67 14 -24 17 -398 28
-569 17z m-167 -143 c-3 -7 -15 -15 -29 -16 -13 -2 -29 -8 -35 -13 -7 -6 -16
-4 -24 6 -7 8 -20 16 -29 16 -19 2 53 16 92 18 19 1 27 -3 25 -11z m-173 -48
c-21 -24 -35 -26 -35 -6 0 8 10 17 23 19 12 2 24 5 26 6 2 0 -4 -8 -14 -19z
m-60 -11 c9 -27 -14 -44 -34 -25 -14 15 -12 15 -76 -43 -21 -19 -120 -45 -135
-36 -29 18 43 65 99 65 16 0 34 7 38 14 7 12 66 40 95 45 4 0 10 -9 13 -20z
m-292 -126 c9 -9 -24 -32 -47 -33 -10 0 -24 -8 -31 -17 -11 -15 -15 -15 -29
-4 -23 19 -20 31 8 31 13 0 29 7 36 15 13 15 51 20 63 8z"/>
<path d="M8000 4150 c0 -37 -152 -200 -188 -200 -5 0 -15 -7 -22 -15 -7 -8
-25 -15 -40 -15 -15 0 -33 -7 -40 -15 -8 -10 -30 -15 -62 -15 -27 0 -59 -5
-70 -11 -39 -21 -180 -23 -256 -5 -91 23 -126 19 -131 -14 -1 -14 -6 -27 -10
-30 -3 -3 -19 -25 -36 -49 -16 -24 -42 -53 -57 -64 -36 -27 -35 -35 7 -53 50
-21 381 -20 432 1 19 8 55 15 78 15 26 0 48 6 55 15 7 8 25 15 40 15 16 0 30
7 34 15 3 8 14 15 24 15 11 0 25 7 32 15 7 8 18 15 26 15 18 0 124 108 124
126 0 8 7 17 15 20 8 4 15 16 15 28 0 12 6 28 12 34 13 13 34 85 45 150 4 25
2 32 -11 32 -9 0 -16 -4 -16 -10z"/>
<path d="M6170 3995 c-14 -8 -44 -14 -66 -15 -24 0 -47 -6 -54 -15 -7 -8 -21
-15 -32 -15 -24 0 -67 -23 -127 -67 -40 -30 -151 -166 -151 -185 0 -24 32 -16
64 17 20 20 52 43 71 50 18 8 36 19 40 25 3 5 21 10 38 10 18 1 43 7 57 15 19
11 69 14 211 15 102 0 189 -4 195 -9 18 -17 89 -21 111 -6 11 8 39 17 62 21
23 4 44 11 47 15 3 5 14 9 26 9 11 0 32 6 46 13 15 8 42 21 60 30 19 9 40 17
47 17 14 0 35 29 35 49 0 7 -28 11 -73 11 -41 0 -96 7 -123 15 -69 21 -447 21
-484 0z"/>
<path d="M3666 3761 c-4 -5 -30 -21 -59 -36 -54 -26 -68 -34 -102 -53 -11 -7
-30 -16 -42 -21 -11 -6 -24 -15 -28 -20 -3 -6 -14 -11 -24 -11 -10 0 -24 -7
-31 -15 -7 -8 -20 -15 -30 -15 -10 0 -23 -7 -30 -15 -7 -8 -21 -15 -32 -15
-10 0 -21 -7 -24 -15 -4 -8 -14 -15 -24 -15 -10 0 -23 -7 -30 -15 -7 -8 -20
-15 -30 -15 -10 0 -23 -7 -30 -15 -7 -8 -21 -15 -31 -15 -10 0 -20 -4 -23 -9
-3 -5 -45 -28 -93 -51 -49 -24 -89 -47 -91 -52 -2 -4 -12 -8 -22 -8 -9 0 -23
-7 -30 -15 -7 -8 -20 -15 -30 -15 -10 0 -23 -7 -30 -15 -7 -8 -20 -15 -30 -15
-10 0 -23 -7 -30 -15 -7 -8 -19 -15 -26 -15 -8 0 -40 -13 -71 -30 -31 -16 -66
-30 -79 -30 -19 0 -24 -5 -24 -25 0 -16 7 -28 18 -31 9 -3 24 -9 32 -14 8 -5
33 -19 55 -31 22 -11 44 -27 48 -35 10 -18 48 -18 73 1 10 8 26 15 35 15 9 0
22 7 29 15 7 8 23 15 35 15 12 0 28 7 35 15 7 8 20 15 30 15 10 0 23 7 30 15
7 8 23 15 37 15 13 0 26 7 29 15 4 8 16 15 29 15 12 0 28 7 35 15 7 8 20 15
30 15 10 0 23 7 30 15 7 8 20 15 30 15 10 0 23 7 30 15 7 8 19 15 27 15 13 0
48 15 93 41 8 5 22 12 30 15 8 3 22 10 30 15 8 5 22 12 30 15 8 3 22 10 30 15
8 5 22 12 30 15 8 3 22 10 30 15 8 5 21 11 28 14 6 3 18 7 25 10 6 3 20 9 30
15 9 5 25 15 35 20 9 6 24 13 32 16 8 3 22 10 30 15 8 5 25 13 37 19 13 5 34
17 48 26 l25 16 -28 35 c-18 24 -30 57 -37 97 -9 56 -12 61 -37 64 -14 2 -29
-1 -32 -7z"/>
<path d="M1521 3695 c-18 -8 -55 -15 -81 -15 -30 0 -52 -6 -60 -15 -7 -8 -22
-15 -35 -15 -12 0 -42 -11 -66 -25 -24 -14 -51 -28 -59 -32 -31 -14 -129 -94
-154 -125 -14 -18 -32 -41 -41 -50 -8 -10 -15 -23 -15 -30 0 -6 -7 -20 -17
-30 -13 -15 -16 -42 -17 -145 -1 -120 0 -130 23 -160 13 -18 28 -30 33 -27 4
3 8 40 8 83 0 58 4 82 15 91 8 7 15 20 15 29 0 19 87 114 113 124 9 3 17 11
17 17 0 5 8 10 19 10 10 0 24 7 31 15 7 8 22 15 34 15 11 0 30 7 40 15 11 8
36 15 57 15 20 0 53 7 72 15 45 19 336 22 370 4 11 -7 62 -14 111 -16 50 -3
108 -11 129 -19 20 -8 66 -14 100 -14 37 0 68 -5 75 -12 7 -7 57 -17 110 -22
190 -16 350 -8 373 20 6 8 18 14 27 14 23 0 162 118 162 138 0 7 5 12 10 12 6
0 10 7 10 15 0 8 -7 15 -15 15 -8 0 -15 -4 -15 -10 0 -5 -6 -10 -14 -10 -7 0
-25 -9 -39 -20 -14 -11 -36 -20 -49 -20 -12 0 -32 -7 -42 -15 -27 -20 -201
-20 -236 0 -14 8 -41 15 -60 15 -19 0 -44 7 -54 15 -11 8 -32 15 -46 15 -14 0
-35 7 -46 15 -10 8 -33 15 -50 15 -17 0 -37 7 -44 15 -7 8 -27 15 -44 15 -18
0 -41 7 -52 15 -10 8 -37 15 -59 15 -22 0 -49 7 -59 15 -12 9 -42 15 -77 15
-31 0 -73 7 -92 15 -50 21 -268 20 -316 0z m119 -115 c0 -5 -9 -10 -20 -10
-11 0 -20 5 -20 10 0 6 9 10 20 10 11 0 20 -4 20 -10z m300 -30 c0 -5 -7 -10
-15 -10 -8 0 -15 5 -15 10 0 6 7 10 15 10 8 0 15 -4 15 -10z"/>
<path d="M3920 3395 c-7 -8 -18 -15 -25 -15 -7 0 -18 -7 -25 -15 -7 -8 -20
-15 -30 -15 -10 0 -23 -7 -30 -15 -7 -8 -20 -15 -30 -15 -10 0 -23 -7 -30 -15
-7 -8 -20 -15 -30 -15 -10 0 -23 -7 -30 -15 -7 -8 -20 -15 -30 -15 -10 0 -23
-7 -30 -15 -7 -8 -20 -15 -30 -15 -10 0 -23 -7 -30 -15 -7 -8 -23 -15 -37 -15
-13 0 -26 -7 -29 -15 -4 -8 -16 -15 -29 -15 -12 0 -28 -7 -35 -15 -7 -8 -20
-15 -30 -15 -10 0 -23 -7 -30 -15 -7 -8 -20 -15 -30 -15 -10 0 -23 -7 -30 -15
-7 -8 -20 -15 -30 -15 -10 0 -23 -7 -30 -15 -7 -8 -20 -15 -30 -15 -10 0 -23
-7 -30 -15 -7 -8 -23 -15 -35 -15 -12 0 -28 -7 -35 -15 -7 -8 -20 -15 -30 -15
-10 0 -23 -7 -30 -15 -7 -8 -20 -15 -29 -15 -10 0 -26 -7 -37 -15 -10 -8 -26
-15 -35 -15 -9 0 -22 -7 -29 -15 -7 -8 -20 -15 -30 -15 -10 0 -23 -7 -30 -15
-7 -8 -21 -15 -31 -15 -9 0 -24 -7 -33 -15 -8 -8 -19 -15 -25 -15 -6 0 -37
-13 -68 -29 -32 -17 -80 -39 -108 -51 -27 -12 -59 -25 -70 -30 -11 -5 -30 -12
-42 -15 -13 -4 -23 -11 -23 -16 0 -5 -13 -9 -29 -9 -16 0 -34 -7 -41 -15 -7
-8 -20 -15 -29 -15 -10 0 -26 -7 -37 -15 -10 -8 -29 -15 -40 -15 -12 0 -27 -7
-34 -15 -7 -8 -25 -15 -40 -15 -15 0 -33 -7 -40 -15 -7 -8 -25 -15 -40 -15
-15 0 -33 -7 -40 -15 -7 -8 -27 -15 -45 -15 -18 0 -38 -7 -45 -15 -7 -8 -27
-15 -44 -15 -18 0 -41 -7 -52 -15 -10 -8 -38 -15 -60 -15 -24 0 -47 -6 -54
-15 -8 -10 -31 -15 -64 -15 -28 -1 -62 -7 -76 -15 -36 -21 -337 -21 -364 0
-11 8 -32 15 -48 15 -15 0 -28 4 -28 10 0 5 -15 16 -34 24 -19 8 -47 29 -63
47 -15 18 -36 39 -45 48 -10 8 -18 21 -18 28 0 22 -19 24 -30 2 -9 -16 -8 -24
4 -38 9 -10 16 -22 16 -28 0 -50 153 -243 193 -243 9 0 20 -7 23 -15 4 -8 18
-15 32 -15 14 0 34 -8 44 -17 17 -15 45 -17 231 -16 171 1 220 4 251 17 21 9
57 16 80 16 22 0 50 7 60 15 11 8 36 15 56 15 20 0 45 7 56 15 10 8 33 15 50
15 17 0 37 7 44 15 7 8 25 15 39 15 15 0 36 7 47 15 10 8 31 15 45 15 15 0 32
7 39 15 7 8 25 15 40 15 15 0 33 7 40 15 7 8 23 15 36 15 12 0 29 7 38 15 8 8
26 15 39 15 14 0 30 7 37 15 7 8 23 15 35 15 12 0 28 7 35 15 7 8 20 15 30 15
10 0 23 7 30 15 7 8 21 15 31 15 9 0 24 6 31 13 7 8 26 17 41 21 15 3 27 11
27 16 0 6 9 10 19 10 11 0 26 7 35 15 8 8 21 15 29 15 8 0 20 7 27 15 7 8 23
15 37 15 13 0 26 7 29 15 4 8 14 15 23 15 10 0 26 7 37 15 10 8 26 15 35 15 9
0 22 7 29 15 7 8 20 15 30 15 10 0 23 7 30 15 7 8 23 15 35 15 12 0 28 7 35
15 7 8 20 15 30 15 10 0 23 7 30 15 7 8 20 15 30 15 10 0 23 7 30 15 7 8 20
15 30 15 10 0 23 7 30 15 7 8 18 15 24 15 7 0 52 20 101 45 50 25 95 45 101
45 6 0 17 7 24 15 7 8 20 15 30 15 10 0 23 7 30 15 7 8 20 15 30 15 10 0 23 7
30 15 7 8 21 15 31 15 9 0 24 6 31 13 7 8 26 17 41 21 15 3 27 11 27 16 0 6
11 10 24 10 13 0 29 7 36 15 7 8 20 15 29 15 9 0 25 7 35 15 11 8 28 15 38 15
10 0 18 4 18 9 0 7 -158 147 -186 164 -7 4 -17 0 -24 -8z"/>
<path d="M7821 3395 c-18 -8 -54 -15 -80 -15 -25 -1 -57 -7 -71 -15 -14 -8
-45 -15 -70 -15 -25 0 -54 -7 -64 -15 -11 -8 -36 -15 -56 -15 -20 0 -45 -7
-56 -15 -10 -8 -35 -15 -55 -15 -19 0 -44 -7 -55 -15 -10 -8 -35 -15 -55 -15
-19 0 -44 -7 -55 -15 -10 -8 -35 -15 -55 -15 -20 0 -42 -7 -49 -15 -8 -9 -30
-15 -60 -15 -30 0 -52 -6 -60 -15 -8 -9 -30 -15 -59 -15 -25 -1 -57 -7 -71
-15 -14 -8 -49 -14 -78 -15 -29 0 -67 -7 -83 -16 -46 -23 -537 -24 -571 0 -12
9 -35 16 -49 16 -15 0 -40 6 -56 14 -15 7 -46 22 -68 32 -22 11 -58 33 -80 49
-52 40 -79 51 -71 29 3 -8 6 -21 6 -28 0 -16 156 -174 184 -187 33 -15 67 -36
79 -48 6 -6 21 -11 33 -11 12 0 27 -7 34 -15 7 -8 27 -15 44 -15 18 0 38 -6
44 -12 7 -7 50 -16 95 -19 45 -4 102 -12 127 -18 60 -14 216 -14 242 0 11 6
66 13 122 16 55 2 118 11 139 19 20 8 61 14 90 14 28 1 63 7 77 15 14 8 46 14
71 15 25 0 54 7 65 15 10 8 40 15 65 15 25 0 54 7 65 15 10 8 40 15 65 15 29
0 51 6 59 15 7 9 29 15 54 15 23 0 51 7 62 15 10 8 39 15 64 15 25 0 56 7 70
15 14 8 47 14 73 15 26 0 60 6 75 14 15 7 68 16 118 18 49 3 100 10 111 17 33
17 246 14 290 -4 19 -8 61 -15 92 -15 33 -1 64 -7 75 -15 11 -8 32 -15 46 -15
14 0 35 -7 46 -15 10 -8 29 -15 41 -15 12 0 25 -5 28 -11 4 -5 17 -15 28 -20
47 -21 147 -94 155 -111 5 -11 32 -10 32 0 0 39 -190 241 -246 262 -13 5 -24
14 -24 20 0 5 -6 10 -14 10 -8 0 -16 7 -20 15 -3 8 -14 15 -24 15 -11 0 -25 7
-32 15 -7 8 -20 15 -30 15 -10 0 -23 7 -30 15 -7 8 -22 15 -34 15 -11 0 -30 7
-40 15 -11 8 -34 15 -50 15 -17 1 -42 7 -56 15 -37 21 -490 21 -539 0z m87
-117 c-5 -15 -88 -24 -88 -10 0 16 13 22 53 22 26 0 37 -4 35 -12z m-145 -15
c12 -11 -14 -33 -39 -33 -30 0 -31 18 -1 30 28 11 32 12 40 3z m-93 -23 c0
-11 -6 -20 -14 -20 -18 0 -29 16 -21 30 11 18 35 11 35 -10z m-60 -19 c0 -10
-24 -21 -46 -21 -20 0 -17 18 4 23 29 8 42 7 42 -2z m-87 -31 c5 -21 4 -21
-96 -24 -15 -1 -32 -7 -37 -15 -4 -8 -32 -18 -62 -22 -29 -4 -65 -11 -80 -14
-22 -6 -28 -4 -28 8 0 11 13 18 38 22 20 3 45 10 54 16 10 5 26 9 35 9 10 0
31 7 47 15 15 8 32 13 36 10 5 -3 19 -1 32 4 37 15 55 12 61 -9z"/>
<path d="M1514 3305 c-10 -8 -38 -15 -60 -15 -24 0 -47 -6 -54 -15 -7 -8 -23
-15 -35 -15 -12 0 -28 -7 -35 -15 -7 -8 -19 -15 -26 -15 -24 0 -158 -125 -174
-163 -6 -12 -14 -29 -19 -37 -26 -46 -39 -79 -46 -115 -4 -22 -10 -44 -15 -50
-13 -17 -21 -64 -14 -90 9 -37 31 -30 39 12 4 21 10 40 13 43 4 3 17 25 29 50
23 48 137 170 158 170 7 0 18 7 25 15 7 8 23 15 35 15 12 0 28 7 35 15 7 9 30
15 54 15 22 1 52 7 66 15 16 9 54 14 105 14 51 0 89 -5 105 -14 14 -8 52 -14
86 -15 37 0 68 -6 80 -15 10 -8 37 -15 59 -15 22 0 49 -7 59 -15 11 -8 32 -15
48 -15 15 0 28 -4 28 -10 0 -5 8 -10 18 -10 18 0 207 -93 232 -114 8 -7 22
-16 30 -20 19 -8 54 -31 124 -80 50 -35 58 -38 73 -25 28 23 170 88 248 114
19 6 18 8 -10 31 -16 13 -36 24 -42 24 -7 0 -13 3 -13 8 0 4 -21 19 -48 35
-61 36 -78 46 -125 80 -22 15 -46 27 -52 27 -7 0 -15 7 -19 15 -3 8 -14 15
-24 15 -11 0 -25 7 -32 15 -7 8 -20 15 -30 15 -10 0 -23 7 -30 15 -7 8 -22 15
-34 15 -11 0 -30 7 -40 15 -11 8 -30 15 -42 15 -12 0 -27 7 -34 15 -7 8 -29
15 -49 15 -20 0 -45 7 -55 15 -11 8 -39 15 -62 15 -23 0 -61 7 -84 15 -61 21
-417 22 -446 0z m502 -141 c-23 -16 -42 -18 -51 -4 -3 6 3 10 13 10 11 0 23 8
26 17 5 13 9 14 19 4 9 -10 8 -15 -7 -27z m114 1 c0 -11 11 -15 38 -15 21 0
42 -4 48 -8 5 -5 35 -19 66 -31 31 -13 64 -31 72 -40 10 -11 26 -16 39 -14 13
3 37 -6 57 -19 19 -13 50 -30 68 -37 41 -17 66 -53 57 -81 -13 -40 -110 -9
-193 62 -22 19 -40 27 -52 23 -11 -4 -26 2 -37 13 -10 10 -39 26 -65 36 -25 9
-52 23 -58 31 -6 8 -31 17 -55 21 -54 8 -71 24 -55 53 13 25 70 30 70 6z"/>
<path d="M1964 2945 c-10 -8 -33 -15 -50 -15 -16 0 -39 -7 -50 -15 -10 -8 -37
-15 -60 -15 -22 0 -49 -7 -60 -15 -11 -8 -42 -14 -76 -15 -32 0 -79 -7 -105
-16 -39 -13 -74 -15 -188 -11 -77 3 -153 9 -169 13 -28 7 -28 6 -13 -17 9 -13
33 -32 54 -43 21 -10 50 -25 65 -32 14 -8 35 -14 45 -14 11 0 28 -7 39 -15 10
-8 37 -15 59 -15 22 0 62 -7 89 -15 57 -17 158 -20 187 -4 11 5 52 13 92 16
40 3 82 12 94 19 12 8 37 14 56 14 18 0 42 7 53 15 10 8 31 15 45 15 15 0 32
7 39 15 7 8 24 15 39 15 14 0 35 7 45 15 11 8 32 15 48 15 52 0 28 25 -70 73
-104 51 -169 61 -208 32z"/>
<path d="M5290 2836 c0 -14 123 -130 161 -151 65 -36 107 -55 120 -55 8 0 23
-7 33 -15 16 -12 55 -15 186 -15 131 0 170 3 186 15 10 8 40 15 65 15 25 0 54
7 65 15 10 8 39 15 64 15 25 0 54 6 65 14 12 7 63 16 120 20 129 9 118 9 206
-7 73 -12 77 -12 70 5 -7 18 -97 88 -113 88 -5 0 -16 7 -24 15 -9 8 -25 15
-37 15 -12 0 -31 7 -41 15 -29 22 -313 22 -342 0 -10 -8 -41 -15 -69 -15 -27
0 -63 -7 -79 -15 -15 -8 -52 -15 -81 -15 -29 0 -69 -7 -88 -15 -23 -9 -68 -15
-122 -15 -54 0 -99 6 -122 15 -19 8 -48 15 -64 15 -15 0 -34 6 -41 14 -8 7
-23 16 -35 20 -12 4 -27 13 -33 21 -16 19 -50 19 -50 1z"/>
<path d="M0 2629 c0 -17 4 -28 10 -24 6 3 10 17 10 31 0 13 -4 24 -10 24 -5 0
-10 -14 -10 -31z"/>
<path d="M3080 2645 c-7 -8 -20 -15 -30 -15 -10 0 -23 -7 -30 -15 -7 -8 -20
-15 -29 -15 -10 0 -26 -7 -37 -15 -10 -8 -26 -15 -34 -15 -8 0 -26 -9 -40 -20
l-25 -20 30 -24 c17 -14 38 -25 48 -26 10 0 20 -6 23 -14 3 -8 13 -17 22 -20
9 -3 31 -15 47 -26 17 -11 39 -24 50 -30 11 -6 34 -19 50 -30 17 -11 40 -24
52 -29 11 -5 24 -15 28 -20 3 -6 14 -11 24 -11 10 0 24 -7 31 -15 7 -8 23 -15
35 -15 12 0 28 -7 35 -15 7 -8 25 -15 40 -15 15 0 33 -7 40 -15 7 -8 29 -15
49 -15 20 0 45 -7 55 -15 29 -22 348 -22 366 0 7 8 25 15 40 15 15 0 33 7 40
15 7 8 20 15 30 15 10 0 23 7 30 15 7 8 17 15 22 15 23 0 177 132 210 180 34
48 10 62 -34 21 -32 -30 -44 -39 -65 -45 -12 -4 -27 -13 -33 -21 -7 -8 -22
-15 -34 -15 -11 0 -30 -7 -40 -15 -11 -8 -38 -15 -60 -15 -23 -1 -52 -7 -66
-15 -33 -19 -118 -19 -163 0 -20 8 -53 15 -74 15 -21 0 -47 7 -57 15 -11 8
-32 15 -47 15 -14 0 -32 7 -39 15 -7 8 -23 15 -35 15 -13 0 -25 7 -29 15 -3 8
-14 15 -25 15 -11 0 -23 5 -26 11 -4 5 -17 15 -28 20 -12 5 -35 18 -52 29 -16
11 -37 23 -45 27 -8 3 -50 33 -92 65 -79 60 -106 69 -128 43z m91 -132 c19
-16 41 -36 51 -45 10 -10 24 -18 32 -18 19 0 39 -27 33 -44 -5 -12 -22 -7 -83
25 -70 36 -104 69 -104 100 0 18 40 8 71 -18z"/>
<path d="M4314 2626 c-8 -22 3 -33 18 -18 9 9 9 15 0 24 -9 9 -13 7 -18 -6z"/>
<path d="M5330 2579 c0 -26 106 -134 200 -204 36 -27 69 -55 73 -62 4 -7 17
-13 28 -13 11 0 22 -7 25 -15 4 -8 12 -15 19 -15 7 0 18 -7 25 -15 7 -8 20
-15 30 -15 10 0 23 -7 30 -15 7 -8 20 -15 30 -15 10 0 23 -7 30 -15 7 -8 25
-15 40 -15 15 0 33 -7 40 -15 7 -8 26 -15 42 -15 16 0 39 -6 51 -14 60 -37
457 -38 488 0 6 8 25 14 41 14 16 0 31 6 34 14 3 8 16 17 30 20 33 9 112 90
120 124 4 15 13 38 21 50 27 43 -4 242 -38 242 -17 0 -39 -45 -39 -79 0 -40
-87 -161 -115 -161 -7 0 -18 -7 -25 -15 -7 -8 -21 -15 -31 -15 -9 0 -24 -7
-33 -15 -8 -8 -31 -15 -51 -15 -20 0 -67 -7 -105 -16 -52 -11 -74 -13 -89 -4
-11 6 -65 13 -118 16 -56 4 -108 12 -120 20 -12 8 -40 14 -61 14 -23 0 -45 6
-52 15 -7 8 -27 15 -44 15 -18 0 -41 7 -52 15 -10 8 -28 15 -40 15 -11 0 -29
7 -40 15 -10 8 -29 15 -40 15 -12 0 -27 7 -34 15 -7 8 -20 15 -30 15 -10 0
-23 7 -30 15 -7 8 -18 15 -25 15 -6 0 -22 9 -35 20 -13 11 -29 20 -36 20 -7 0
-14 3 -16 8 -4 9 -84 72 -92 72 -3 0 -6 -10 -6 -21z"/>
<path d="M1946 1916 c-9 -19 -16 -37 -16 -40 0 -3 -17 -34 -39 -69 -21 -35
-42 -73 -45 -85 -4 -12 -11 -22 -16 -22 -5 0 -12 -10 -16 -22 -3 -12 -10 -26
-15 -32 -41 -49 -49 -60 -49 -68 0 -5 -5 -14 -10 -21 -6 -7 -24 -28 -40 -47
-16 -19 -30 -38 -30 -41 0 -6 -10 -18 -63 -79 -12 -14 -40 -47 -62 -75 -78
-98 -66 -93 -227 -89 -142 4 -143 4 -149 28 -18 65 -100 130 -199 157 -55 16
-387 24 -403 10 -7 -5 -30 -12 -52 -16 -71 -12 -158 -47 -282 -114 -57 -30
-164 -137 -194 -193 -27 -50 -47 -184 -30 -201 6 -6 11 -23 11 -37 0 -47 103
-162 163 -183 9 -4 17 -11 17 -17 0 -5 11 -10 25 -10 14 0 28 -7 31 -15 4 -9
19 -15 39 -15 18 0 46 -7 61 -15 38 -20 160 -20 207 0 20 8 51 15 69 15 18 0
42 7 52 15 11 8 32 15 47 15 14 0 32 7 39 15 7 8 20 15 29 15 9 0 25 7 35 15
11 8 28 15 38 15 10 0 18 4 18 9 0 5 10 13 23 17 12 4 36 17 53 30 17 13 35
24 41 24 5 0 19 8 31 17 11 10 30 25 43 33 116 78 251 191 350 294 l47 50 166
1 c92 1 169 -2 172 -6 2 -4 -3 -12 -11 -19 -8 -7 -15 -20 -15 -30 0 -10 -7
-23 -15 -30 -8 -7 -15 -20 -15 -30 0 -10 -7 -23 -15 -30 -8 -7 -15 -23 -15
-35 0 -12 -6 -28 -14 -34 -7 -6 -16 -28 -20 -49 -3 -20 -9 -51 -12 -68 -8 -42
19 -102 51 -114 15 -6 48 -10 75 -10 41 0 56 6 107 43 32 24 67 57 77 73 27
42 75 86 86 79 5 -3 6 -35 3 -72 -6 -65 -6 -66 27 -94 35 -31 70 -37 92 -16 7
7 21 16 30 19 22 9 158 169 158 186 0 8 6 12 13 10 18 -7 20 -55 3 -80 -25
-35 -21 -110 7 -135 19 -18 29 -20 68 -14 26 4 54 15 64 24 9 9 22 17 28 17
19 0 78 59 136 135 29 39 57 71 62 73 5 2 9 9 9 17 0 7 7 18 15 25 8 7 15 21
15 32 0 26 24 18 28 -10 2 -12 -4 -29 -12 -38 -9 -8 -16 -24 -16 -33 0 -10 -7
-24 -15 -31 -8 -7 -15 -22 -15 -34 0 -12 -7 -31 -15 -42 -19 -26 -19 -59 2
-92 22 -34 33 -42 60 -42 31 0 131 78 190 147 26 32 55 64 63 73 58 63 88 97
96 112 30 54 211 241 225 233 15 -10 11 -81 -6 -95 -8 -7 -15 -23 -15 -35 0
-12 -7 -28 -15 -35 -8 -7 -15 -20 -15 -30 0 -10 -7 -23 -15 -30 -8 -7 -15 -21
-15 -32 0 -11 -7 -26 -15 -34 -8 -9 -15 -24 -15 -33 0 -10 -7 -24 -15 -31 -8
-7 -15 -18 -15 -26 0 -7 -20 -52 -45 -99 -45 -88 -49 -113 -15 -95 10 5 32 10
47 10 21 0 36 9 51 30 12 16 22 34 22 40 0 17 86 126 155 196 33 34 67 72 75
84 46 68 198 222 211 214 15 -9 11 -90 -6 -104 -8 -7 -15 -20 -15 -30 0 -10
-7 -23 -15 -30 -8 -7 -15 -23 -15 -35 0 -12 -7 -28 -15 -35 -8 -7 -15 -20 -15
-30 0 -10 -7 -23 -15 -30 -8 -7 -15 -23 -15 -35 0 -12 -7 -28 -15 -35 -8 -7
-15 -20 -15 -30 0 -10 -7 -23 -15 -30 -8 -7 -15 -19 -15 -27 0 -7 -9 -26 -19
-41 -10 -15 -22 -39 -25 -54 l-6 -28 47 6 c49 7 93 38 93 67 0 8 7 20 15 27 8
7 15 19 15 26 0 8 4 14 8 14 5 0 23 20 41 46 18 25 54 66 80 92 25 26 64 69
86 97 95 119 182 208 196 199 15 -9 11 -90 -6 -104 -8 -7 -15 -20 -15 -30 0
-10 -7 -23 -15 -30 -8 -7 -15 -23 -15 -35 0 -12 -7 -28 -15 -35 -8 -7 -15 -20
-15 -29 0 -9 -7 -25 -15 -35 -8 -11 -15 -27 -15 -37 0 -9 -7 -22 -15 -29 -8
-7 -15 -21 -15 -31 0 -9 -7 -24 -15 -33 -10 -9 -15 -34 -15 -69 0 -53 1 -56
29 -62 39 -8 101 4 108 21 3 8 13 14 22 14 9 0 26 15 39 34 13 18 36 47 52 62
31 31 37 49 19 60 -12 7 -88 -71 -89 -91 -1 -20 -51 -66 -68 -63 -22 4 -28 51
-8 68 9 7 16 20 16 30 0 10 7 23 15 30 8 7 15 20 15 29 0 10 7 26 15 37 8 10
15 26 15 35 0 9 7 22 15 29 8 7 15 21 15 31 0 9 7 24 15 33 8 8 15 25 15 38 0
13 7 36 15 52 8 15 15 41 15 57 0 39 -36 96 -66 103 -34 9 -45 2 -143 -94 -78
-77 -99 -101 -171 -197 -29 -40 -57 -73 -62 -73 -4 0 -8 14 -8 30 0 17 4 30
10 30 5 0 13 12 16 27 4 15 13 34 21 41 7 7 13 24 13 37 0 12 7 36 15 51 8 16
15 37 15 47 0 32 -38 94 -62 101 -32 8 -33 8 -56 -11 -11 -10 -30 -25 -43 -33
-42 -28 -124 -119 -216 -243 -30 -40 -59 -72 -66 -72 -16 0 -9 45 9 66 8 8 14
23 14 31 0 9 7 21 15 28 8 7 15 25 15 40 0 15 6 43 14 61 12 30 12 39 -4 78
-18 46 -46 66 -78 54 -9 -4 -19 -9 -22 -12 -3 -4 -24 -18 -46 -33 -23 -15 -59
-48 -80 -74 -22 -27 -46 -55 -54 -64 -53 -58 -89 -99 -110 -129 -55 -76 -212
-241 -230 -241 -20 0 -23 32 -6 60 9 16 16 35 16 43 0 8 7 20 15 27 8 7 15 20
15 30 0 10 7 23 15 30 8 7 15 23 15 35 0 12 7 28 15 35 8 7 15 20 15 30 0 10
7 23 15 30 8 7 15 20 15 29 0 10 7 26 15 37 8 10 15 25 15 32 0 8 9 25 20 39
20 25 27 63 13 63 -5 0 -57 2 -118 5 -94 3 -119 1 -175 -18 -36 -12 -71 -28
-78 -34 -7 -7 -19 -13 -26 -13 -16 0 -130 -114 -221 -220 -58 -68 -115 -126
-231 -238 -7 -6 -22 -12 -33 -12 -19 0 -21 6 -21 64 0 44 5 67 15 76 8 7 15
20 15 30 0 10 7 23 15 30 8 7 15 23 15 35 0 12 7 28 15 35 8 7 15 20 15 29 0
9 7 25 15 35 8 11 15 27 15 37 0 9 7 22 15 29 8 7 15 21 15 31 0 9 7 24 15 33
8 8 15 23 15 34 0 11 7 25 15 32 8 7 15 20 15 30 0 10 7 23 15 30 8 7 15 23
15 35 0 12 7 28 15 35 8 7 15 22 15 34 0 12 7 31 15 42 10 13 14 46 15 115 0
80 -3 99 -18 112 -33 30 -42 21 -42 -46 0 -40 -5 -70 -15 -83 -8 -10 -15 -26
-15 -35 0 -8 -13 -42 -30 -74 -16 -32 -30 -64 -30 -71 0 -6 -7 -17 -15 -24 -8
-7 -15 -23 -15 -35 0 -12 -7 -28 -15 -35 -8 -7 -15 -20 -15 -30 0 -10 -7 -23
-15 -30 -8 -7 -15 -22 -15 -34 0 -11 -7 -30 -15 -40 -8 -11 -15 -27 -15 -37 0
-9 -7 -22 -15 -29 -8 -7 -15 -20 -15 -30 0 -10 -7 -23 -15 -30 -8 -7 -15 -21
-15 -32 0 -25 -211 -230 -267 -258 -41 -20 -45 -21 -68 -6 -28 19 -32 52 -10
82 8 10 15 29 15 40 0 12 7 27 15 34 8 7 15 23 15 37 0 13 7 26 15 29 8 4 15
16 15 29 0 12 7 28 15 35 8 7 15 23 15 35 0 12 7 28 15 35 8 7 15 21 15 32 0
19 4 20 83 13 94 -7 157 1 157 20 0 22 -36 27 -121 20 -68 -6 -80 -5 -85 9 -4
9 1 25 10 35 9 10 16 27 16 38 0 12 7 23 15 27 8 3 15 16 15 29 0 14 7 30 15
37 8 7 15 20 15 30 0 10 7 23 15 30 8 7 15 21 15 32 0 10 8 30 17 44 13 20 17
51 17 142 1 128 -8 160 -66 235 -37 46 -61 47 -82 3z m66 -63 c15 -13 18 -32
18 -103 0 -60 -4 -92 -15 -106 -8 -10 -15 -31 -15 -45 0 -15 -7 -32 -15 -39
-8 -7 -15 -23 -15 -37 0 -13 -7 -26 -15 -29 -8 -4 -15 -16 -15 -29 0 -12 -7
-28 -15 -35 -8 -7 -15 -19 -15 -27 0 -8 -6 -27 -14 -41 -7 -15 -22 -45 -31
-67 -10 -22 -21 -47 -25 -55 -6 -12 -33 -15 -154 -15 -82 0 -149 2 -151 5 -2
3 22 33 54 65 31 33 79 89 106 125 27 36 53 70 57 75 65 82 180 263 192 303 4
12 12 22 17 22 5 0 9 8 9 18 0 34 15 40 42 15z m-1051 -499 c8 -6 31 -14 52
-18 41 -8 122 -76 115 -98 -4 -10 -67 -13 -296 -13 -219 0 -294 -3 -303 -12
-7 -7 -28 -13 -46 -13 -61 0 -143 -60 -143 -104 0 -26 64 -96 88 -96 7 0 20
-7 28 -15 10 -9 34 -15 63 -15 26 0 52 -5 58 -11 14 -14 166 -14 213 0 19 6
53 11 75 11 22 0 49 6 60 14 11 7 33 16 48 20 62 15 144 81 177 143 l20 38
108 1 c59 1 115 0 124 -3 21 -5 19 -7 -107 -113 -87 -73 -120 -99 -165 -130
-12 -8 -28 -21 -36 -27 -7 -7 -17 -13 -23 -13 -5 0 -16 -6 -23 -13 -17 -17
-101 -66 -163 -96 -28 -13 -63 -30 -78 -37 -16 -8 -41 -14 -55 -14 -15 0 -36
-7 -46 -15 -28 -22 -312 -21 -340 0 -11 8 -32 15 -47 15 -15 0 -29 7 -33 15
-3 8 -16 15 -29 15 -14 0 -30 7 -37 15 -7 8 -18 15 -25 15 -26 0 -110 97 -124
144 -22 76 -2 125 89 216 93 93 213 156 345 180 28 5 66 13 85 19 46 13 353 9
371 -5z m1976 -90 c2 -6 -19 -40 -47 -77 -27 -36 -50 -69 -50 -72 0 -3 -13
-18 -28 -33 -15 -15 -44 -48 -65 -73 -49 -63 -186 -201 -219 -223 -15 -10 -32
-15 -38 -11 -16 10 -12 101 5 115 8 7 15 23 15 35 0 12 7 28 15 35 8 7 15 20
15 30 0 10 7 23 15 30 8 7 15 19 15 26 0 14 125 145 175 182 16 12 37 22 47
22 10 0 18 4 18 9 0 20 121 24 127 5z m-1835 -99 c-4 -23 -41 -56 -92 -82 -19
-10 -36 -21 -38 -25 -2 -5 -14 -8 -26 -8 -12 0 -31 -7 -42 -15 -10 -8 -38 -15
-61 -15 -23 0 -74 -7 -113 -15 -47 -10 -77 -12 -89 -6 -10 6 -51 13 -92 17
-125 11 -200 79 -127 115 63 31 145 42 368 49 319 9 316 9 312 -15z"/>
<path d="M6020 1906 c-14 -7 -42 -21 -63 -31 -47 -23 -76 -51 -99 -94 -23 -42
-25 -177 -3 -205 8 -11 15 -32 15 -47 0 -14 7 -32 15 -39 8 -7 15 -23 15 -35
0 -12 7 -28 15 -35 8 -7 15 -20 15 -30 0 -10 7 -23 15 -30 8 -7 15 -20 15 -30
0 -10 7 -23 15 -30 8 -7 15 -21 15 -31 0 -10 5 -21 10 -24 6 -4 7 -12 1 -22
-6 -12 -1 -22 19 -40 18 -15 30 -36 33 -61 3 -20 9 -50 13 -65 14 -60 -29
-157 -100 -225 -51 -49 -63 -57 -153 -101 -26 -13 -60 -30 -75 -37 -14 -8 -39
-14 -56 -14 -16 0 -46 -7 -65 -15 -51 -21 -323 -21 -374 0 -19 8 -56 15 -82
15 -25 0 -55 7 -65 15 -11 8 -34 15 -52 15 -17 0 -37 7 -44 15 -7 8 -21 15
-30 15 -21 0 -76 28 -100 51 -10 9 -22 18 -27 20 -5 2 -27 26 -48 54 l-38 50
6 85 c4 47 11 86 17 88 5 2 10 10 10 17 0 14 80 99 120 128 13 9 31 17 40 17
9 0 20 4 25 8 29 25 148 51 265 57 141 8 345 -8 388 -31 15 -7 35 -14 45 -14
9 0 17 -4 17 -9 0 -5 9 -13 20 -16 21 -7 56 -62 46 -73 -8 -8 -88 -22 -185
-32 -46 -5 -89 -14 -95 -20 -5 -5 -37 -10 -70 -10 -35 0 -73 -7 -90 -15 -15
-8 -47 -15 -70 -15 -22 0 -54 -7 -70 -15 -15 -8 -36 -15 -46 -15 -25 0 -100
-64 -100 -86 0 -21 81 -84 109 -84 15 0 32 -5 38 -11 19 -19 304 8 311 30 2 6
18 11 37 11 18 0 38 7 45 15 7 8 21 15 31 15 9 0 24 7 33 15 8 8 20 15 26 15
11 0 57 38 84 68 6 7 19 21 29 30 9 9 17 27 17 39 0 13 6 23 14 23 23 0 26 27
5 46 -10 9 -19 25 -19 35 0 25 -70 96 -103 104 -15 4 -27 11 -27 16 0 4 -17
11 -37 14 -21 4 -49 12 -62 18 -35 17 -465 17 -483 0 -6 -7 -20 -13 -31 -13
-16 0 -75 -23 -136 -53 -40 -20 -146 -129 -169 -175 -12 -23 -22 -53 -22 -67
0 -13 -4 -27 -10 -30 -15 -9 -11 -126 5 -155 8 -14 14 -33 15 -43 0 -43 141
-177 185 -177 7 0 18 -7 25 -15 7 -8 22 -15 34 -15 12 0 31 -7 42 -15 10 -8
34 -15 52 -15 18 0 47 -7 64 -16 47 -24 409 -24 456 0 17 9 42 16 56 16 13 0
39 8 58 17 18 9 45 22 60 30 14 7 31 13 38 13 7 0 32 14 57 30 24 17 48 30 53
30 22 0 171 160 200 215 30 57 31 67 33 180 2 101 4 119 17 117 56 -13 81 -13
111 2 17 9 53 16 79 16 32 0 55 6 73 20 29 23 62 26 74 8 11 -19 3 -70 -13
-89 -8 -8 -14 -23 -14 -31 0 -9 -7 -21 -15 -28 -8 -7 -15 -20 -15 -30 0 -10
-7 -23 -15 -30 -8 -7 -15 -18 -15 -24 0 -7 -13 -39 -30 -71 -16 -32 -30 -66
-30 -76 0 -9 -7 -33 -15 -54 -15 -33 -15 -41 1 -80 16 -43 33 -55 82 -55 12 0
25 7 28 15 3 8 16 17 27 21 28 8 114 98 202 212 39 50 75 91 81 91 7 1 15 8
18 17 3 8 11 12 17 9 7 -5 5 -13 -5 -24 -9 -10 -16 -25 -16 -35 0 -10 -7 -24
-15 -32 -8 -9 -15 -24 -15 -33 0 -10 -7 -24 -15 -31 -8 -7 -15 -20 -15 -29 0
-9 -7 -25 -15 -35 -21 -27 -18 -86 4 -113 24 -28 88 -31 129 -6 36 22 152 143
152 158 0 7 16 28 35 48 34 35 55 46 55 29 0 -10 -35 -79 -48 -95 -9 -11 -17
-72 -13 -107 3 -32 100 -66 116 -40 3 5 19 10 34 10 16 0 34 7 41 15 7 8 20
15 30 15 10 0 23 7 30 15 7 8 17 15 23 15 6 0 21 10 33 21 26 24 54 19 54 -8
0 -10 15 -34 33 -54 39 -44 96 -58 141 -34 15 8 37 15 47 15 11 0 22 6 25 14
3 8 16 17 28 20 28 7 235 216 236 237 0 4 14 22 31 40 16 19 33 41 37 50 7 17
59 83 102 130 63 69 90 20 40 -74 -16 -31 -30 -63 -30 -71 0 -7 -7 -19 -15
-26 -8 -7 -15 -20 -15 -30 0 -10 -7 -23 -15 -30 -8 -7 -15 -23 -15 -35 0 -12
-7 -28 -15 -35 -8 -7 -15 -20 -15 -30 0 -10 -7 -23 -15 -30 -8 -7 -15 -20 -15
-29 0 -9 -5 -22 -10 -27 -17 -17 -48 -83 -42 -89 3 -3 28 -5 57 -5 50 0 52 1
68 38 9 21 17 43 17 49 0 6 7 16 15 23 8 7 15 23 15 35 0 12 7 28 15 35 8 7
15 23 15 35 0 12 7 28 15 35 8 7 15 18 15 25 0 7 7 18 15 25 8 7 15 19 15 27
0 16 83 128 115 155 27 23 56 22 62 -2 13 -48 57 -7 67 61 8 51 -8 75 -42 65
-20 -7 -72 -54 -114 -104 -14 -18 -31 -32 -37 -32 -5 0 -13 27 -17 61 -6 52
-10 62 -31 70 -19 7 -33 5 -57 -10 -48 -30 -196 -185 -196 -205 0 -6 -11 -20
-84 -101 -19 -22 -36 -43 -36 -47 -1 -32 -220 -198 -262 -198 -28 0 -58 52
-58 100 0 48 13 70 41 70 9 0 19 7 23 15 3 8 17 15 31 15 14 0 25 5 25 10 0 6
7 10 15 10 7 0 18 6 22 13 4 7 24 23 43 34 19 12 64 51 98 87 68 70 91 120 72
155 -22 41 -126 69 -153 42 -6 -6 -18 -11 -28 -11 -26 0 -101 -63 -146 -122
-49 -65 -103 -164 -103 -189 0 -9 -7 -30 -14 -46 -8 -15 -17 -36 -20 -46 -3
-9 -14 -20 -23 -23 -30 -10 -88 -37 -93 -43 -11 -13 -97 -52 -120 -54 -22 -2
-25 2 -28 34 -2 23 2 40 12 49 9 7 16 20 16 30 0 10 7 23 15 30 8 7 15 23 15
35 0 12 7 28 15 35 8 7 15 20 15 30 0 10 7 23 15 30 8 7 15 23 15 35 0 12 7
28 15 35 8 7 15 20 15 29 0 9 7 25 15 35 8 11 15 27 15 35 1 25 44 72 66 70
37 -4 54 1 54 16 0 10 -10 15 -30 15 -25 0 -30 4 -30 24 0 13 7 29 15 36 8 7
15 20 15 30 0 10 7 23 15 30 8 7 15 20 15 29 0 9 6 26 14 37 8 11 17 60 21
110 6 77 5 93 -10 107 -12 13 -21 15 -36 7 -15 -8 -19 -22 -19 -61 0 -28 -6
-63 -14 -77 -15 -30 -59 -125 -101 -216 l-27 -58 -44 5 c-29 3 -47 0 -54 -8
-13 -16 4 -30 35 -30 26 0 34 -55 11 -75 -9 -7 -16 -20 -16 -30 0 -10 -7 -23
-15 -30 -8 -7 -15 -17 -15 -22 0 -13 -54 -82 -105 -134 -22 -22 -65 -69 -95
-105 -76 -88 -101 -108 -132 -109 -23 0 -28 4 -28 24 0 13 7 29 15 36 8 7 15
20 15 30 0 10 7 23 15 30 8 7 15 20 15 30 0 10 7 23 15 30 8 7 15 23 15 35 0
12 7 28 15 35 8 7 15 20 15 30 0 10 7 23 15 30 8 7 15 23 15 35 0 12 7 28 15
35 8 7 15 21 15 31 0 10 4 20 9 23 9 6 51 87 51 99 0 4 -25 7 -55 7 -44 0 -57
-4 -61 -17 -3 -10 -10 -25 -15 -33 -5 -8 -12 -22 -16 -30 -12 -27 -67 -94
-172 -209 -223 -245 -249 -271 -268 -271 -26 0 -13 65 33 160 25 52 50 102 55
110 5 8 12 22 15 30 3 8 10 22 15 30 5 8 12 22 15 30 3 8 10 22 15 30 5 8 12
22 15 30 3 8 12 28 20 43 19 39 18 50 -9 75 -19 18 -35 22 -95 22 -39 0 -74
-4 -77 -10 -3 -5 -29 -10 -57 -10 -27 0 -64 -6 -81 -14 -18 -8 -50 -17 -72
-20 -22 -3 -52 -8 -66 -12 -24 -5 -29 -1 -49 43 -12 26 -26 55 -31 63 -5 8
-12 22 -15 30 -3 8 -12 27 -20 42 -8 14 -14 33 -14 41 0 8 -7 20 -15 27 -8 7
-15 20 -15 30 0 10 -7 23 -15 30 -8 7 -15 19 -15 28 0 8 -7 23 -15 32 -24 26
-25 148 -2 183 42 65 152 99 201 62 47 -35 56 -64 49 -157 -5 -78 -4 -88 12
-94 21 -9 35 11 35 52 0 16 4 34 9 40 6 5 13 39 17 76 8 80 4 87 -71 123 -60
28 -134 33 -175 11z m1743 -646 c9 -11 17 -27 17 -36 0 -25 -66 -109 -113
-146 -49 -38 -72 -57 -95 -80 -9 -10 -22 -18 -30 -18 -7 0 -15 -7 -18 -15 -4
-8 -12 -15 -20 -15 -19 0 -18 54 1 70 8 7 15 20 15 30 0 10 7 23 15 30 8 7 15
17 15 22 0 22 76 106 128 141 31 20 59 37 62 37 3 0 13 -9 23 -20z m-2016
-145 c5 -15 -4 -25 -74 -85 -7 -5 -16 -10 -21 -10 -5 0 -15 -7 -22 -15 -7 -8
-23 -15 -35 -15 -12 0 -28 -7 -35 -15 -7 -8 -24 -15 -39 -15 -14 0 -39 -7 -56
-16 -45 -24 -327 -26 -351 -2 -21 21 -12 45 23 59 15 6 36 15 45 20 10 5 35 9
55 9 21 0 51 7 67 15 15 8 52 15 82 15 29 0 71 6 91 14 21 8 67 17 102 19 39
3 70 11 79 21 21 21 81 21 89 1z"/>
<path d="M8698 1307 c-15 -9 -40 -18 -57 -22 -17 -4 -33 -11 -36 -16 -3 -4
-21 -16 -40 -25 -46 -21 -157 -137 -178 -184 -4 -8 -11 -22 -15 -30 -29 -49
-60 -148 -69 -215 -5 -38 31 -99 53 -91 9 3 28 6 44 6 16 0 35 6 42 14 8 7 23
16 35 20 26 8 133 115 171 171 15 22 30 42 35 43 4 2 7 10 7 17 0 7 7 15 15
19 8 3 15 15 15 26 0 11 7 20 15 20 10 0 15 -10 15 -30 0 -16 -4 -30 -9 -30
-5 0 -12 -13 -16 -29 -3 -16 -13 -35 -21 -42 -8 -6 -14 -20 -14 -30 0 -10 -5
-29 -11 -43 -14 -29 -4 -89 17 -111 9 -8 26 -15 40 -15 52 0 224 151 224 197
0 13 -5 23 -11 23 -6 0 -46 -36 -88 -80 -42 -44 -82 -80 -89 -80 -21 0 -25 28
-8 52 9 12 16 30 16 39 0 9 7 22 15 29 8 7 15 23 15 37 0 13 7 26 15 29 8 4
15 16 15 29 0 12 7 28 15 35 8 7 15 18 15 25 0 12 18 52 42 95 4 8 11 22 14
30 3 8 14 33 25 56 28 59 25 64 -29 64 -27 0 -82 3 -123 6 -55 4 -81 1 -101
-9z m144 -56 c-1 -13 -8 -29 -15 -35 -8 -6 -29 -31 -47 -56 -19 -25 -41 -52
-49 -61 -9 -9 -29 -33 -46 -54 -93 -118 -251 -265 -285 -265 -16 0 -12 96 5
110 8 7 15 20 15 29 1 9 12 34 25 56 14 22 28 47 32 55 32 72 154 188 233 223
56 24 63 26 100 24 31 -2 35 -5 32 -26z"/>
<path d="M5853 1190 c-45 -19 -20 -40 46 -40 36 0 82 22 70 34 -11 11 -94 16
-116 6z"/>
<path d="M6285 310 c-3 -5 3 -10 15 -10 12 0 18 5 15 10 -3 6 -10 10 -15 10
-5 0 -12 -4 -15 -10z"/>
<path d="M287 293 c-2 -5 -1 -71 2 -148 5 -113 9 -140 21 -142 34 -6 39 11 42
150 3 144 2 147 -42 147 -10 0 -21 -3 -23 -7z"/>
<path d="M431 286 c-11 -13 -9 -17 13 -26 42 -16 34 -90 -10 -90 -31 0 -30
-12 1 -46 13 -14 27 -42 31 -60 7 -36 35 -60 60 -50 24 9 -1 80 -44 125 -11
11 -8 17 17 32 24 14 31 26 31 49 0 52 -71 100 -99 66z"/>
<path d="M599 296 c0 -3 -1 -68 -1 -143 l-1 -138 26 -3 c30 -4 28 -16 31 203
l1 80 -28 3 c-15 2 -27 1 -28 -2z"/>
<path d="M734 286 c-18 -14 -18 -15 6 -24 76 -28 92 -23 70 19 -13 22 -48 25
-76 5z"/>
<path d="M1025 290 c-10 -17 20 -44 40 -36 9 3 15 14 13 23 -4 21 -43 30 -53
13z"/>
<path d="M1134 288 c-5 -7 -8 -73 -6 -145 l3 -133 25 0 c13 0 24 3 24 8 6 195
4 272 -8 277 -21 8 -29 6 -38 -7z"/>
<path d="M1247 293 c-2 -5 -3 -69 -2 -143 2 -129 3 -135 24 -138 20 -3 21 0
21 122 0 109 2 126 18 135 15 8 14 11 -11 20 -33 13 -44 14 -50 4z"/>
<path d="M1375 286 l-30 -14 33 -7 c47 -11 72 -51 72 -117 0 -37 -6 -60 -20
-78 -26 -33 -25 -50 3 -50 32 1 60 45 65 106 6 72 -2 97 -45 139 -41 40 -38
39 -78 21z"/>
<path d="M1549 296 c-3 -4 -3 -152 1 -279 0 -5 12 -7 28 -5 18 2 26 8 23 18
-13 58 -13 92 3 109 15 16 15 19 1 31 -19 16 -19 59 0 87 14 20 14 23 -4 33
-20 10 -44 13 -52 6z"/>
<path d="M1686 287 c-17 -13 -17 -14 12 -26 40 -17 67 -11 67 14 0 25 -51 33
-79 12z"/>
<path d="M1824 289 c-8 -13 15 -59 30 -59 13 0 63 -55 134 -148 30 -40 60 -71
66 -69 6 2 12 19 14 38 3 31 -4 42 -61 100 -35 35 -78 83 -96 107 -33 42 -71
56 -87 31z"/>
<path d="M2028 288 c-9 -24 3 -38 34 -38 25 0 29 3 26 23 -3 25 -52 38 -60 15z"/>
<path d="M2116 285 c-7 -19 3 -45 18 -45 6 0 22 9 36 20 21 17 23 21 10 30
-22 15 -57 12 -64 -5z"/>
<path d="M2228 293 c-21 -5 -23 -14 -7 -30 8 -8 10 -52 7 -138 l-4 -126 26 3
25 3 5 140 c6 157 3 163 -52 148z"/>
<path d="M2327 293 c-14 -13 -6 -28 22 -45 33 -18 41 -15 41 18 0 27 -44 47
-63 27z"/>
<path d="M2427 293 c-4 -3 -7 -69 -7 -145 l0 -138 29 0 29 0 4 132 c2 73 2
139 0 146 -4 13 -44 17 -55 5z"/>
<path d="M2850 290 c-12 -7 -12 -12 -2 -22 8 -8 12 -50 12 -135 l0 -123 24 0
25 0 3 136 c2 76 -1 139 -6 145 -13 12 -37 11 -56 -1z"/>
<path d="M3704 289 c-8 -14 -5 -262 4 -271 4 -4 19 -10 34 -13 27 -7 27 -6 18
26 -14 46 -13 206 1 231 9 16 8 23 -2 29 -19 12 -47 11 -55 -2z"/>
<path d="M3968 293 c-2 -5 -2 -70 0 -146 3 -135 4 -138 25 -135 21 3 22 9 27
136 3 78 1 137 -4 143 -12 11 -43 12 -48 2z"/>
<path d="M4075 290 c-4 -6 -1 -25 5 -41 9 -21 11 -63 7 -135 l-5 -105 27 3 26
3 0 140 0 140 -27 3 c-14 2 -29 -2 -33 -8z"/>
<path d="M4220 288 l-25 -10 30 -13 c75 -32 88 -28 65 16 -12 21 -32 23 -70 7z"/>
<path d="M4345 290 c-5 -8 -10 -203 -6 -267 1 -8 14 -13 32 -13 l31 0 -7 51
c-5 35 -3 59 6 75 10 19 10 27 1 36 -15 15 -15 50 0 83 13 29 12 31 -23 40
-16 4 -30 2 -34 -5z"/>
<path d="M4486 287 c-19 -14 -19 -15 2 -26 11 -6 33 -11 47 -11 22 0 26 4 23
23 -4 27 -44 35 -72 14z"/>
<path d="M4630 273 c-50 -58 -17 -130 64 -140 54 -7 96 -29 96 -51 0 -41 -13
-62 -44 -71 l-31 -9 30 -1 c17 0 40 5 53 12 25 14 52 59 52 86 0 31 -52 69
-105 76 -72 11 -107 49 -74 82 12 12 6 43 -9 43 -5 0 -19 -12 -32 -27z"/>
<path d="M4765 289 c-8 -12 23 -49 41 -49 15 0 28 35 19 50 -8 13 -52 13 -60
-1z"/>
<path d="M4862 288 c-17 -17 -15 -58 3 -58 8 0 15 5 15 10 0 6 6 10 14 10 7 0
18 6 25 13 22 27 -31 51 -57 25z"/>
<path d="M4967 293 c-13 -12 -8 -268 5 -281 30 -30 68 0 48 38 -6 10 -10 59
-10 108 0 70 4 92 16 103 14 12 14 14 -2 26 -19 14 -47 17 -57 6z"/>
<path d="M5071 291 c-12 -8 -13 -12 -1 -26 18 -22 55 -16 55 10 0 22 -31 31
-54 16z"/>
<path d="M5155 290 c-4 -6 7 -27 23 -48 66 -83 82 -119 82 -177 0 -41 4 -57
16 -62 25 -9 31 7 36 90 5 69 3 77 -13 77 -10 0 -21 9 -24 20 -3 11 -10 20
-15 20 -5 0 -11 14 -15 30 -4 17 -13 37 -22 45 -17 17 -59 20 -68 5z"/>
<path d="M5356 284 c-10 -26 -7 -44 8 -50 19 -7 59 33 52 52 -7 19 -52 18 -60
-2z"/>
<path d="M5463 289 c-9 -9 -9 -18 -1 -32 6 -12 9 -65 6 -133 -3 -101 -1 -114
14 -114 9 0 22 -2 30 -5 11 -4 12 22 8 142 -5 139 -6 148 -25 151 -11 1 -26
-3 -32 -9z"/>
<path d="M5730 290 c-12 -8 -13 -13 -2 -30 8 -13 12 -60 12 -135 l0 -115 25 0
c24 0 25 2 25 65 0 78 9 85 80 63 60 -19 87 -1 61 40 -7 11 -17 11 -58 -4 -74
-26 -87 -17 -80 56 4 46 2 60 -10 64 -21 8 -36 7 -53 -4z"/>
<path d="M5871 286 l-24 -13 39 -13 c21 -7 45 -17 52 -23 10 -8 16 -7 23 4 30
47 -31 78 -90 45z"/>
<path d="M6191 269 c-17 -17 -31 -39 -31 -49 0 -10 -4 -22 -10 -25 -16 -10
-12 -83 6 -118 30 -57 75 -84 125 -74 22 4 21 5 -8 12 -17 4 -34 15 -37 24 -4
9 -13 27 -21 41 -30 51 -15 132 31 175 14 13 23 29 19 34 -12 20 -43 11 -74
-20z"/>
<path d="M6340 282 c0 -19 54 -65 64 -55 12 12 6 40 -12 56 -25 22 -52 22 -52
-1z"/>
<path d="M6471 264 c-38 -41 -53 -92 -45 -144 11 -65 63 -121 112 -119 12 0
11 3 -5 9 -13 5 -23 18 -23 28 0 10 -7 27 -15 38 -32 42 -7 184 33 184 18 0
10 34 -9 38 -8 1 -30 -14 -48 -34z"/>
<path d="M6610 280 c0 -11 4 -20 10 -20 13 0 50 -87 50 -118 0 -35 -37 -109
-63 -127 -21 -15 -21 -15 -1 -15 37 0 72 24 94 66 19 34 22 51 17 97 -3 31
-10 62 -16 69 -62 73 -91 88 -91 48z"/>
<path d="M6763 283 c-4 -9 2 -30 11 -47 50 -87 86 -167 86 -190 0 -24 20 -29
41 -10 20 18 25 49 9 59 -5 3 -16 20 -24 38 -43 95 -56 127 -56 140 0 28 -57
37 -67 10z"/>
<path d="M6994 292 c-15 -10 -26 -70 -14 -77 6 -3 10 -51 10 -106 0 -99 0 -99
25 -99 14 0 25 3 25 8 7 164 3 272 -8 277 -18 7 -25 6 -38 -3z"/>
<path d="M7104 286 c-3 -7 4 -29 15 -47 20 -33 35 -63 52 -104 45 -112 56
-130 75 -114 20 16 19 89 -1 89 -8 0 -15 5 -15 11 0 5 -8 29 -18 52 -10 23
-27 61 -37 85 -14 32 -23 42 -42 42 -13 0 -26 -6 -29 -14z"/>
<path d="M7341 291 c-9 -6 -14 -23 -13 -43 2 -18 4 -76 7 -128 2 -52 4 -98 4
-102 1 -5 12 -8 25 -8 l23 0 -5 113 c-3 75 -1 121 7 135 9 18 8 23 -8 32 -23
12 -22 12 -40 1z"/>
<path d="M7444 294 c-13 -6 -8 -192 7 -240 5 -18 20 -36 35 -43 33 -14 144
-15 144 0 0 6 -7 8 -16 5 -8 -3 -33 -3 -53 0 -61 10 -74 43 -70 172 4 101 3
107 -16 109 -11 1 -25 0 -31 -3z"/>
<path d="M7634 285 c-9 -22 4 -35 37 -35 24 0 29 4 29 25 0 21 -5 25 -30 25
-18 0 -33 -6 -36 -15z"/>
<path d="M7741 286 c-9 -10 1 -26 46 -73 72 -74 101 -108 133 -156 29 -44 54
-45 58 -2 2 25 -6 40 -50 85 -29 30 -64 70 -78 89 -54 73 -83 88 -109 57z"/>
<path d="M7944 285 c-4 -9 4 -23 17 -34 24 -19 24 -19 35 2 7 11 10 27 7 34
-7 18 -52 16 -59 -2z"/>
<path d="M8055 292 c-6 -4 -9 -61 -7 -144 l4 -138 24 0 25 0 -3 142 c-3 118
-6 143 -18 145 -8 2 -19 0 -25 -5z"/>
<path d="M8147 293 c-4 -3 -7 -15 -7 -25 0 -20 21 -23 51 -7 16 8 18 13 8 25
-12 15 -41 19 -52 7z"/>
<path d="M8240 291 c-12 -8 -12 -13 -1 -35 10 -19 13 -54 9 -136 -5 -94 -3
-112 10 -117 38 -15 44 7 45 152 l0 140 -24 3 c-13 1 -31 -2 -39 -7z"/>
<path d="M8351 291 c-18 -11 -8 -26 29 -45 27 -13 30 -13 30 0 0 23 -19 54
-33 54 -7 0 -18 -4 -26 -9z"/>
<path d="M8444 286 c-5 -12 25 -67 47 -86 3 -3 16 -22 28 -43 19 -31 22 -47
18 -82 -7 -48 12 -81 40 -71 8 3 17 6 19 6 2 0 4 31 4 69 0 61 -3 72 -24 88
-13 10 -26 29 -30 41 -4 12 -12 22 -17 22 -5 0 -9 10 -9 23 0 13 -5 28 -12 35
-17 17 -57 15 -64 -2z"/>
<path d="M8640 281 c-15 -30 -13 -71 5 -71 8 0 15 7 15 16 0 9 9 18 20 21 13
3 20 14 20 29 0 19 -5 24 -25 24 -14 0 -29 -8 -35 -19z"/>
<path d="M878 259 c-24 -40 -23 -58 5 -92 16 -19 37 -30 75 -37 63 -11 92 -26
92 -45 0 -29 -21 -66 -42 -75 -23 -9 -23 -9 3 -9 38 -1 89 53 89 94 0 44 -33
71 -97 80 -76 10 -94 35 -68 98 6 13 2 17 -16 17 -16 0 -30 -10 -41 -31z"/>
<path d="M2653 277 c-13 -5 -23 -15 -23 -21 0 -6 20 -51 45 -101 24 -50 45
-97 45 -105 0 -23 21 -40 47 -40 31 0 29 17 -12 97 -19 37 -35 74 -35 81 0 6
-4 12 -9 12 -5 0 -11 18 -15 39 -7 47 -13 52 -43 38z"/>
<path d="M3335 279 c-4 -6 2 -13 14 -16 15 -4 21 -13 21 -32 0 -15 6 -36 14
-46 13 -18 14 -18 25 3 18 34 14 73 -9 79 -11 3 -20 9 -20 14 0 13 -37 11 -45
-2z"/>
<path d="M3286 244 c-10 -27 -7 -61 9 -74 17 -14 3 -50 -19 -50 -17 0 -26 -22
-26 -60 0 -36 39 -63 83 -58 28 4 30 5 12 13 -29 13 -44 36 -45 68 0 41 30 34
78 -18 36 -40 76 -65 102 -65 12 0 0 37 -16 51 -12 10 -12 14 2 30 21 24 15
64 -11 64 -16 0 -20 -6 -17 -32 3 -42 -9 -42 -43 0 -14 17 -34 41 -45 53 -10
11 -21 37 -25 57 -7 38 -28 49 -39 21z"/>
<path d="M2608 184 c-5 -4 -8 -16 -8 -26 0 -10 -7 -18 -15 -18 -9 0 -15 -9
-15 -25 0 -16 6 -25 15 -25 9 0 15 9 15 23 0 13 5 28 11 34 6 6 9 19 7 28 -1
9 -6 13 -10 9z"/>
<path d="M713 166 l-32 -12 40 -12 c54 -17 59 -16 59 13 0 28 -14 30 -67 11z"/>
<path d="M1665 166 l-30 -13 43 -13 c46 -15 70 -5 59 24 -8 19 -31 20 -72 2z"/>
<path d="M4205 173 c-35 -9 -40 -22 -11 -33 46 -17 66 -13 66 15 0 25 -10 29
-55 18z"/>
<path d="M4455 166 l-30 -13 43 -13 c46 -15 70 -5 59 24 -8 19 -31 20 -72 2z"/>
<path d="M1827 104 c-4 -22 -7 -54 -7 -71 0 -29 3 -33 25 -33 14 0 25 1 25 3
0 1 -9 33 -19 71 l-18 69 -6 -39z"/>
<path d="M7647 83 c-4 -3 -7 -19 -7 -35 0 -40 24 -31 28 10 3 30 -6 41 -21 25z"/>
<path d="M2540 61 c-17 -32 -12 -61 9 -61 23 0 33 23 25 56 -7 29 -20 31 -34
5z"/>
<path d="M7732 59 c-14 -37 -4 -59 29 -59 37 0 39 27 4 60 l-25 23 -8 -24z"/>
<path d="M855 60 c-11 -18 5 -48 28 -54 12 -3 36 -5 52 -5 l30 1 -32 10 c-20
7 -34 19 -37 34 -6 24 -30 32 -41 14z"/>
<path d="M1755 58 c-11 -6 -24 -18 -28 -25 -5 -8 -18 -18 -30 -23 -18 -7 -16
-9 16 -9 48 -1 77 14 77 39 0 25 -11 31 -35 18z"/>
<path d="M5951 62 c-13 -2 -25 -12 -28 -21 -2 -10 -17 -22 -31 -28 -25 -10
-24 -11 20 -12 38 -1 49 3 58 20 16 29 9 45 -19 41z"/>
<path d="M6370 45 c-5 -14 -20 -30 -32 -36 -19 -8 -16 -9 15 -5 51 7 70 22 56
47 -13 26 -28 24 -39 -6z"/>
<path d="M7100 49 c-10 -17 -9 -24 3 -36 8 -9 20 -12 26 -9 16 10 14 41 -3 55
-12 10 -17 8 -26 -10z"/>
<path d="M793 44 c-3 -9 -20 -22 -37 -30 l-31 -13 42 -1 c45 0 76 21 67 45 -8
20 -33 19 -41 -1z"/>
<path d="M3033 41 c-2 -10 -19 -23 -36 -29 -31 -10 -30 -10 19 -11 52 -1 74
11 74 41 0 26 -50 25 -57 -1z"/>
<path d="M3883 41 c-2 -10 -19 -23 -36 -29 -32 -10 -31 -10 15 -11 38 -1 49 3
58 19 6 11 8 25 5 30 -10 17 -37 11 -42 -9z"/>
<path d="M4528 42 c-7 -10 -22 -24 -33 -30 -18 -10 -16 -11 16 -12 41 0 87 30
75 48 -11 18 -43 14 -58 -6z"/>
<path d="M4603 44 c-8 -22 8 -34 53 -40 34 -4 36 -3 17 7 -12 6 -23 20 -26 30
-6 23 -35 25 -44 3z"/>
<path d="M5649 43 c-8 -9 -27 -22 -44 -29 l-30 -13 35 0 c58 -1 80 9 80 35 0
28 -21 32 -41 7z"/>
<path d="M6770 52 c-37 -12 -32 -52 6 -52 19 0 24 5 24 24 0 28 -8 36 -30 28z"/>
</g>
</svg>
