<?xml version="1.0" standalone="no"?>
<!DOCTYPE svg PUBLIC "-//W3C//DTD SVG 20010904//EN"
 "http://www.w3.org/TR/2001/REC-SVG-20010904/DTD/svg10.dtd">
<svg version="1.0" xmlns="http://www.w3.org/2000/svg"
 width="218.000000pt" height="121.000000pt" viewBox="0 0 218.000000 121.000000"
 preserveAspectRatio="xMidYMid meet">
<metadata>
Created by potrace 1.10, written by Peter Selinger 2001-2011
</metadata>
<g transform="translate(0.000000,121.000000) scale(0.100000,-0.100000)"
fill="#ffffff" stroke="none">
<path d="M555 1119 c5 -16 4 -19 -5 -14 -10 6 -11 4 -4 -6 5 -8 9 -17 10 -21
1 -5 2 -9 4 -10 2 -3 6 -38 13 -101 3 -26 22 -40 22 -15 0 6 5 13 12 15 12 4
12 -14 0 -34 -5 -7 -5 -13 -1 -13 3 0 1 -6 -5 -13 -8 -11 -7 -18 7 -29 31 -27
39 -28 38 -6 0 12 4 23 11 25 8 3 11 -3 8 -16 -3 -18 -1 -19 21 -9 15 7 20 14
13 18 -7 5 -5 9 6 14 23 9 27 8 19 -5 -4 -7 1 -7 16 1 12 6 24 9 27 7 3 -3 -8
-12 -24 -21 -15 -8 -21 -16 -13 -16 9 0 6 -6 -9 -14 l-24 -14 23 -7 c17 -6 20
-9 9 -16 -23 -15 4 -9 31 6 29 17 44 19 35 5 -4 -6 1 -7 11 -3 12 4 15 3 10
-5 -5 -8 -1 -10 11 -6 16 5 16 4 -1 -10 -23 -19 -40 -21 -30 -4 4 7 3 8 -4 4
-18 -11 -16 -14 41 -42 28 -15 49 -23 44 -19 -4 5 0 17 10 27 20 22 41 24 22
2 -15 -19 -21 -47 -8 -38 5 3 7 9 5 13 -8 12 49 63 59 54 4 -5 5 -2 1 5 -12
20 9 13 32 -11 12 -13 19 -27 15 -32 -5 -4 -3 -5 4 -1 35 20 66 -141 42 -224
-21 -76 -6 -130 37 -130 28 0 49 39 38 74 -12 39 12 2 30 -47 30 -79 105 -136
123 -91 4 10 -18 37 -70 85 -50 46 -80 82 -88 106 -20 63 5 234 33 217 5 -3 7
0 6 8 -2 7 3 12 10 10 6 -1 12 3 12 9 0 11 25 39 35 39 3 0 3 -5 -1 -12 -4 -6
-3 -8 3 -5 5 4 23 -7 38 -23 27 -28 24 -45 -3 -18 -10 10 -42 21 -42 14 0 -1
14 -15 32 -32 17 -16 28 -23 23 -15 -5 9 -3 12 6 9 21 -8 111 40 103 54 -5 8
-2 9 10 5 10 -4 15 -3 11 3 -3 6 -1 10 6 10 7 0 4 7 -7 15 -22 17 -12 20 18 4
15 -8 19 -8 14 0 -9 14 4 14 24 1 12 -8 12 -10 1 -10 -8 0 -12 -2 -9 -5 7 -7
50 12 99 41 32 20 35 26 33 60 -1 22 -3 39 -4 39 -1 0 -3 8 -5 18 -2 11 2 16
8 14 7 -2 12 -9 12 -15 0 -7 5 -12 10 -12 6 0 10 8 10 18 0 9 4 23 8 30 6 8 0
20 -15 32 -13 11 -18 19 -13 20 6 0 16 -5 23 -12 9 -9 12 -8 12 5 0 27 1 31
13 47 7 8 -4 1 -25 -15 -24 -19 -35 -35 -33 -47 3 -12 -1 -18 -8 -15 -7 3 -11
10 -9 16 3 16 -169 -72 -258 -132 -90 -61 -166 -130 -188 -172 -16 -30 -16
-43 -9 -255 2 -49 0 -55 -18 -55 -22 0 -21 -3 -15 195 2 56 -2 86 -15 113 -21
44 -93 111 -190 177 -82 55 -264 148 -283 144 -7 -1 -8 0 -2 3 6 2 0 13 -12
24 -13 10 -18 18 -11 19 6 0 15 -5 18 -10 7 -11 85 -53 90 -48 5 5 -105 98
-116 98 -6 0 -7 -9 -4 -21z m143 -118 c51 -26 80 -46 76 -53 -4 -6 -1 -9 7 -6
19 7 51 -11 43 -23 -3 -6 1 -9 9 -7 9 2 17 -1 19 -6 2 -5 -7 -11 -19 -12 -16
-3 -21 1 -18 14 2 12 -4 17 -23 19 -14 0 -20 -2 -13 -6 6 -4 -7 -8 -31 -9 -89
-3 -125 -13 -113 -33 9 -14 -11 -11 -24 4 -6 8 -7 17 -3 21 4 4 8 12 8 17 1 5
2 10 4 12 1 1 3 10 5 19 4 23 -12 33 -29 19 -11 -9 -13 -5 -11 19 1 16 -1 30
-5 30 -3 0 -7 6 -7 13 0 22 37 12 125 -32z m912 4 c-5 -6 -6 -16 -2 -21 4 -4
-1 -2 -10 5 -21 16 -37 7 -33 -17 2 -9 4 -17 5 -17 1 0 3 -17 4 -38 2 -40 -21
-66 -46 -51 -7 4 -8 3 -4 -4 10 -16 -40 -35 -62 -23 -9 5 -35 7 -57 6 l-40 -3
38 19 c34 18 39 18 67 4 32 -17 54 -20 30 -5 -13 9 -13 10 0 10 8 1 -7 12 -33
26 -27 14 -47 28 -44 30 3 3 15 0 27 -6 15 -8 20 -8 16 -1 -8 13 -4 14 19 5
12 -5 13 -9 5 -14 -8 -5 -7 -9 5 -13 11 -5 14 -3 9 5 -5 8 -2 9 10 5 11 -5 15
-3 10 4 -4 7 -1 10 7 7 8 -3 13 -14 13 -26 -1 -12 3 -19 7 -16 5 3 7 10 4 15
-4 5 0 9 7 9 9 0 9 3 -2 10 -13 8 -13 10 -1 10 11 0 9 4 -5 15 -19 15 -19 15
1 9 15 -5 17 -4 6 4 -18 13 -23 42 -8 42 5 0 8 2 5 5 -3 3 -13 2 -22 -1 -14
-5 -15 -9 -4 -16 9 -6 5 -7 -12 -3 -17 4 -21 3 -12 -3 11 -7 11 -10 -2 -15 -9
-4 -24 -4 -33 -1 -16 5 -16 4 -3 -6 13 -10 12 -11 -3 -6 -10 3 -32 -1 -48 -9
-16 -9 -34 -13 -39 -10 -5 3 -7 -3 -5 -14 3 -17 -1 -20 -25 -17 -35 4 -44 -2
-28 -21 9 -12 6 -13 -17 -9 l-28 5 23 -24 c13 -14 19 -25 13 -25 -6 0 -16 7
-23 15 -7 8 -17 12 -22 9 -5 -3 0 -16 12 -29 12 -13 17 -24 11 -26 -6 -2 -2
-10 10 -17 12 -8 18 -9 15 -3 -4 5 2 9 11 9 10 0 27 3 38 7 33 13 13 -1 -35
-25 -25 -12 -42 -19 -37 -14 4 4 -9 24 -29 45 -20 20 -33 42 -29 48 3 6 10 9
15 6 5 -3 14 4 20 16 7 11 14 19 16 16 3 -3 16 6 29 19 14 14 30 21 40 18 10
-4 15 -2 13 6 -2 8 36 34 90 63 74 39 96 46 107 37 17 -14 38 -4 28 13 -4 7 1
6 10 -2 12 -9 14 -17 7 -26z m-78 -52 c-10 -4 -9 -8 3 -17 14 -10 13 -12 -12
-10 -15 1 -32 2 -38 3 -12 2 36 30 50 30 6 0 4 -3 -3 -6z m-81 -58 c42 -24 49
-36 8 -15 -14 8 -29 6 -60 -10 -23 -12 -38 -16 -34 -10 6 9 2 9 -14 0 -18 -9
-20 -14 -10 -26 19 -23 -6 -16 -27 8 -10 12 -13 18 -6 14 18 -11 35 3 23 18
-8 9 -3 12 17 12 15 -1 28 3 29 8 1 7 22 25 29 26 1 0 22 -11 45 -25z m-664
-4 l-28 -18 33 -14 c18 -7 39 -12 47 -11 8 2 10 -1 5 -10 -6 -10 -4 -10 9 1
10 8 20 12 22 9 3 -3 -1 -11 -9 -17 -11 -10 -21 -9 -45 4 -23 11 -36 13 -50 5
-11 -5 -27 -7 -36 -3 -15 5 -14 8 6 19 15 8 18 13 9 14 -16 0 38 40 55 40 6 0
-3 -8 -18 -19z m116 -15 c3 3 13 -6 22 -20 10 -14 22 -23 27 -20 6 4 8 1 6 -7
-3 -8 -11 -13 -17 -11 -6 1 -10 -4 -8 -10 1 -7 -4 -12 -12 -10 -7 2 -24 -6
-36 -18 -19 -18 -26 -19 -48 -9 l-26 12 40 29 c43 31 44 48 1 44 -31 -3 -74
13 -66 25 2 4 20 6 39 4 19 -3 37 0 41 7 5 8 11 6 19 -5 7 -9 15 -14 18 -11z
m476 -45 l23 -18 -33 -13 c-33 -14 -73 -21 -64 -12 3 3 -5 17 -17 31 -16 18
-17 21 -4 11 11 -8 37 -15 58 -15 l39 -1 -23 18 c-13 10 -18 18 -13 18 6 0 21
-9 34 -19z m-118 -78 c13 -16 12 -17 -3 -4 -10 7 -18 15 -18 17 0 8 8 3 21
-13z"/>
<path d="M599 1038 c-6 -15 -4 -56 3 -52 11 7 44 -18 43 -34 0 -7 -7 -17 -15
-22 -13 -8 -13 -10 -1 -10 11 0 9 -4 -5 -16 -18 -14 -17 -14 6 -2 14 7 34 14
45 15 11 1 35 4 53 6 33 4 57 17 31 17 -10 0 -11 2 -2 8 8 5 -14 21 -62 45
-41 20 -74 32 -72 26 1 -6 -3 -13 -10 -16 -8 -3 -11 3 -8 16 3 17 -1 30 -6 19z
m101 -58 c30 -16 48 -29 40 -30 -13 0 -13 -2 -1 -9 11 -7 8 -9 -10 -10 -13 0
-39 -2 -58 -4 -31 -4 -32 -3 -16 10 14 9 15 13 4 13 -11 0 -11 2 -1 8 9 6 5
12 -13 20 -14 7 -23 17 -20 22 9 14 13 13 75 -20z"/>
<path d="M660 980 c19 -11 28 -19 20 -20 -13 0 -13 -1 0 -10 12 -8 12 -10 1
-10 -8 0 -12 -2 -9 -5 3 -3 18 0 32 7 l27 12 -43 22 c-52 28 -77 31 -28 4z"/>
<path d="M1468 979 c-43 -21 -78 -42 -78 -44 0 -3 18 4 39 15 22 11 48 17 58
14 12 -4 14 -3 5 3 -15 11 53 47 70 37 7 -4 8 -2 4 4 -10 16 -11 16 -98 -29z"/>
<path d="M1421 861 c-10 -7 -8 -9 10 -8 13 0 33 -3 44 -7 13 -5 11 -2 -5 8
-30 18 -31 18 -49 7z"/>
<path d="M1255 810 c10 -11 20 -20 23 -20 3 0 -3 9 -13 20 -10 11 -20 20 -23
20 -3 0 3 -9 13 -20z"/>
<path d="M1403 895 c0 -7 6 -11 14 -8 7 3 13 6 13 8 0 2 -6 5 -13 8 -8 3 -14
-1 -14 -8z"/>
<path d="M750 850 c-8 -5 -10 -10 -5 -10 6 0 17 5 25 10 8 5 11 10 5 10 -5 0
-17 -5 -25 -10z"/>
<path d="M859 873 c-13 -16 -12 -17 4 -4 16 13 21 21 13 21 -2 0 -10 -8 -17
-17z"/>
<path d="M886 858 c3 -5 10 -6 15 -3 13 9 11 12 -6 12 -8 0 -12 -4 -9 -9z"/>
<path d="M885 826 c-32 -26 -45 -62 -17 -47 27 15 64 58 55 64 -5 3 -22 -4
-38 -17z m15 -11 c-13 -14 -28 -25 -34 -25 -6 1 3 12 19 25 39 32 45 32 15 0z"/>
<path d="M1567 1093 c-31 -27 -54 -49 -52 -51 11 -11 125 71 125 89 0 18 -20
8 -73 -38z"/>
<path d="M667 839 c7 -7 15 -10 18 -7 3 3 -2 9 -12 12 -14 6 -15 5 -6 -5z"/>
<path d="M690 780 c0 -16 42 -37 105 -50 59 -12 59 -12 30 -24 -26 -11 -27
-13 -10 -20 10 -4 42 -4 71 0 28 3 54 2 57 -3 3 -5 -8 -8 -26 -7 -24 2 -20 0
14 -9 63 -17 97 -41 108 -80 l10 -32 -2 33 c-1 27 -10 40 -52 71 -27 21 -67
40 -87 44 -21 3 -47 14 -58 25 -47 44 -160 81 -160 52z m173 -87 c-7 -2 -21
-2 -30 0 -10 3 -4 5 12 5 17 0 24 -2 18 -5z"/>
<path d="M1405 769 c-22 -12 -56 -32 -75 -45 -19 -13 -45 -24 -57 -24 -12 0
-46 -17 -76 -37 -47 -33 -54 -42 -55 -73 l-1 -35 12 34 c7 19 21 39 32 45 11
6 22 14 25 18 8 10 178 38 194 32 8 -3 17 -1 20 4 3 6 -18 8 -52 7 -40 -2 -49
-1 -32 5 14 4 19 8 11 9 -26 2 -3 12 60 27 65 15 93 30 83 45 -9 15 -48 10
-89 -12z m-95 -83 c0 -2 -15 -6 -34 -8 -19 -2 -32 0 -30 4 5 8 64 12 64 4z"/>
<path d="M929 763 c-1 -1 -2 -6 -3 -10 -1 -5 -5 -15 -10 -23 -5 -8 3 -4 17 9
15 14 27 25 27 26 0 3 -30 2 -31 -2z"/>
<path d="M680 736 c0 -24 19 -46 42 -50 7 -1 19 -6 27 -10 10 -7 12 -6 6 4 -6
10 -4 12 8 7 42 -17 49 -17 17 1 -19 11 -42 19 -51 17 -8 -2 -16 3 -16 10 0 8
7 11 16 7 20 -7 14 -1 -21 21 -28 17 -28 17 -28 -7z"/>
<path d="M1475 738 c-16 -11 -23 -18 -14 -15 9 3 16 -1 16 -9 0 -7 -3 -11 -7
-9 -4 3 -15 -4 -24 -14 -12 -13 -14 -21 -6 -26 6 -3 9 -1 8 5 -2 7 6 14 17 16
23 3 45 31 45 56 0 21 2 22 -35 -4z"/>
<path d="M800 601 c-84 -30 -99 -64 -56 -133 l23 -38 -2 55 c0 30 -3 57 -7 60
-3 3 -4 -6 -3 -20 2 -14 -1 -25 -6 -25 -10 0 -12 31 -3 54 3 9 10 13 15 10 5
-3 9 -1 9 4 0 5 17 14 39 20 43 13 105 16 98 5 -3 -5 13 -8 36 -9 36 -1 39 0
22 12 -10 8 -28 14 -39 15 -12 0 -32 2 -46 4 -14 3 -50 -4 -80 -14z"/>
<path d="M1260 608 c-19 -5 -41 -9 -47 -10 -7 -1 -13 -6 -13 -11 0 -5 7 -6 16
-3 9 4 24 1 32 -6 13 -11 14 -11 7 1 -6 11 -3 13 13 9 12 -4 20 -2 16 3 -16
27 116 -1 146 -31 16 -16 28 -76 13 -67 -6 4 -10 1 -11 -6 0 -7 -4 -23 -7 -37
-4 -16 3 -9 19 19 32 53 32 71 4 99 -44 40 -122 57 -188 40z"/>
<path d="M997 565 c-8 -19 -87 -76 -98 -69 -14 8 -88 -35 -106 -62 -16 -25
-16 -27 1 -40 26 -18 47 -7 40 22 -4 17 1 30 21 49 33 30 38 30 56 8 12 -14
12 -16 0 -8 -10 6 -12 4 -6 -5 5 -9 4 -11 -4 -6 -6 4 -8 12 -5 18 4 6 1 8 -7
6 -8 -3 -13 -11 -11 -17 1 -6 -3 -10 -9 -9 -6 2 -13 -6 -15 -17 -5 -27 15 -87
27 -80 5 4 2 17 -7 31 -15 22 -13 28 8 25 4 0 5 9 3 20 -3 13 0 19 8 16 7 -2
13 -9 13 -15 3 -23 4 -24 17 -13 8 6 16 8 20 5 12 -12 1 25 -13 40 -11 14 -11
19 0 29 8 7 10 8 7 1 -4 -6 2 -19 12 -28 17 -15 19 -15 36 4 10 11 15 21 12
21 -25 5 -34 4 -46 -5 -12 -9 -12 -8 -1 11 8 12 17 20 21 17 4 -2 10 0 14 6 3
5 15 10 26 10 20 0 23 8 13 34 -8 20 -20 21 -27 1z m-18 -92 c-6 -7 -15 -10
-20 -7 -13 8 -3 21 15 21 12 0 13 -4 5 -14z m-45 -22 c3 -5 -1 -14 -8 -20 -12
-10 -14 -9 -11 6 2 10 4 19 4 21 2 5 10 2 15 -7z m-59 -10 c3 -5 2 -12 -3 -15
-5 -3 -9 1 -9 9 0 17 3 19 12 6z"/>
<path d="M1166 564 c-9 -23 -7 -34 5 -34 5 0 7 5 3 12 -4 7 -3 8 5 4 6 -4 9
-11 6 -16 -7 -12 17 -28 38 -25 10 2 16 -2 14 -8 -2 -7 -14 -11 -26 -11 -20 1
-21 0 -6 -16 11 -12 26 -17 43 -14 25 5 26 5 8 -14 -11 -13 -14 -22 -7 -27 6
-3 11 -3 11 1 0 4 11 -3 24 -15 14 -13 22 -29 19 -37 -10 -26 6 -14 22 16 15
29 16 55 2 78 -5 6 -4 12 2 12 16 0 33 -39 26 -59 -8 -25 20 -35 40 -14 14 13
14 18 2 37 -17 26 -87 67 -104 61 -14 -5 -92 50 -100 70 -7 20 -19 19 -27 -1z
m94 -89 c-12 -14 -35 -14 -47 0 -4 4 -3 5 3 2 7 -4 17 0 24 8 7 8 16 12 22 9
5 -3 5 -11 -2 -19z m56 3 c5 -8 2 -9 -10 -5 -11 5 -15 3 -10 -5 5 -7 2 -8 -7
-3 -8 5 -11 4 -6 -1 5 -5 16 -9 25 -9 16 0 18 -7 14 -59 -2 -18 -5 -17 -30 7
-16 15 -33 24 -38 20 -5 -5 0 2 10 15 11 12 16 22 11 22 -4 0 -2 7 5 15 15 18
26 19 36 3z"/>
<path d="M1274 439 c-2 -4 4 -13 13 -20 14 -12 16 -12 8 0 -6 11 -4 13 7 9 8
-4 15 -1 15 6 0 12 -35 17 -43 5z"/>
<path d="M966 425 c-47 -44 -67 -69 -63 -79 9 -24 33 -19 71 14 30 27 76 114
65 124 -2 2 -35 -25 -73 -59z"/>
<path d="M418 248 c16 -16 16 -145 0 -151 -7 -3 3 -5 22 -5 19 0 29 2 23 5 -9
3 -13 30 -13 84 0 75 -1 79 -22 79 -17 0 -19 -3 -10 -12z"/>
<path d="M488 248 c16 -16 16 -145 0 -151 -7 -3 3 -5 22 -5 19 0 29 2 23 5 -9
3 -13 30 -13 84 0 75 -1 79 -22 79 -17 0 -19 -3 -10 -12z"/>
<path d="M978 249 c16 -17 16 -131 0 -147 -9 -9 -4 -12 23 -12 19 0 29 4 22 8
-7 4 -13 38 -15 82 -3 66 -5 75 -23 78 -16 3 -18 1 -7 -9z"/>
<path d="M1703 213 c4 -16 0 -23 -17 -26 -20 -4 -20 -4 2 -6 19 -1 22 -7 22
-40 0 -22 -5 -42 -12 -44 -7 -3 3 -5 22 -5 19 0 29 2 23 5 -8 2 -13 22 -13 44
0 33 3 39 23 40 20 1 20 2 2 6 -11 3 -28 15 -38 26 l-19 22 5 -22z"/>
<path d="M633 205 c-68 -48 -8 -161 74 -140 37 9 26 21 -16 17 -31 -3 -42 0
-55 19 -22 31 -20 65 4 89 25 25 62 26 83 2 18 -20 23 -72 7 -72 -5 0 -7 7 -3
15 7 19 -24 55 -47 55 -22 0 -40 -20 -40 -46 0 -31 20 -43 65 -41 33 2 41 7
49 30 21 60 -65 111 -121 72z m67 -40 c16 -19 3 -57 -18 -53 -18 3 -27 30 -18
54 7 18 20 18 36 -1z"/>
<path d="M78 152 c3 -31 1 -47 -9 -53 -10 -6 -7 -9 11 -9 24 0 25 3 22 45 -4
41 -2 45 18 45 20 0 22 -4 18 -45 -3 -40 -1 -45 17 -45 17 0 20 7 20 42 0 32
4 43 15 43 11 0 15 -11 15 -43 0 -38 2 -42 25 -42 15 0 20 3 13 8 -6 4 -13 25
-15 47 -2 33 -7 41 -26 43 -13 2 -29 -1 -37 -8 -10 -8 -14 -8 -17 1 -2 7 -20
13 -40 13 l-35 2 5 -44z"/>
<path d="M292 184 c-31 -21 -30 -69 2 -90 18 -11 30 -13 42 -6 9 5 25 7 34 5
10 -3 21 1 25 8 5 8 4 10 -3 5 -8 -5 -12 3 -12 23 0 32 -29 71 -53 71 -7 0
-23 -7 -35 -16z m46 -3 c8 -5 12 -22 10 -42 -2 -26 -8 -35 -25 -37 -27 -4 -41
35 -23 67 12 23 18 25 38 12z"/>
<path d="M847 182 c-25 -28 -21 -69 8 -88 18 -12 29 -13 38 -6 7 6 22 9 34 6
11 -3 24 0 28 7 5 8 4 10 -3 5 -8 -5 -12 3 -12 23 0 58 -59 91 -93 53z m52 -6
c20 -24 10 -70 -16 -74 -27 -4 -41 35 -23 67 13 25 23 26 39 7z"/>
<path d="M1059 179 c-26 -26 -21 -57 13 -82 21 -15 30 -18 41 -9 7 6 22 9 34
6 11 -3 24 -1 27 5 4 6 0 11 -8 11 -11 0 -16 9 -16 28 0 31 -27 62 -53 62 -9
0 -26 -9 -38 -21z m60 -3 c7 -8 11 -27 9 -43 -4 -41 -52 -41 -56 0 -3 27 12
57 28 57 4 0 13 -6 19 -14z"/>
<path d="M1198 143 c-3 -51 -2 -53 22 -52 14 0 19 3 13 6 -18 7 -16 68 1 82
12 10 17 8 25 -8 15 -27 14 -68 -1 -74 -7 -3 -2 -6 12 -6 23 -1 25 3 25 41 0
34 4 43 19 46 16 3 18 -2 15 -42 -4 -41 -2 -46 17 -46 18 0 20 5 17 28 -10 67
-13 72 -38 72 -13 0 -27 -5 -30 -10 -5 -8 -11 -7 -21 1 -8 7 -28 13 -44 14
-27 2 -28 0 -32 -52z"/>
<path d="M1456 181 c-21 -24 -16 -34 24 -51 16 -7 27 -16 24 -21 -9 -15 -36
-10 -50 9 -7 9 -14 12 -14 5 0 -15 28 -43 44 -43 18 0 36 21 36 43 0 12 -11
23 -30 30 -36 14 -40 30 -5 25 13 -2 25 2 27 7 6 19 -38 16 -56 -4z"/>
<path d="M1549 187 c6 -6 11 -26 11 -43 0 -39 33 -69 60 -54 10 5 20 6 24 3 3
-3 6 12 6 35 0 22 2 46 5 54 3 9 -3 13 -19 13 -13 0 -22 -4 -18 -9 3 -5 5 -26
5 -45 0 -29 -4 -36 -19 -36 -15 0 -20 8 -22 41 -2 33 -8 43 -24 47 -16 5 -18
3 -9 -6z"/>
<path d="M1797 182 c-42 -46 4 -118 58 -94 14 7 25 19 25 29 0 14 -3 13 -21
-6 -23 -24 -42 -17 -52 19 -4 17 0 20 34 20 43 0 48 8 21 33 -24 22 -45 21
-65 -1z m51 -10 c2 -7 -6 -12 -17 -12 -21 0 -27 11 -14 24 9 9 26 2 31 -12z"/>
<path d="M1930 180 c-11 -11 -20 -33 -20 -49 0 -16 -6 -32 -12 -34 -7 -3 -2
-6 12 -6 23 -1 25 3 25 41 0 39 2 43 23 41 14 -2 22 3 22 12 0 21 -26 19 -50
-5z"/>
<path d="M2022 184 c-25 -17 -30 -65 -8 -83 8 -7 25 -12 38 -12 13 0 33 1 45
1 12 0 25 5 29 12 4 7 3 8 -4 4 -8 -5 -12 3 -12 23 0 32 -29 71 -53 71 -7 0
-23 -7 -35 -16z m46 -3 c8 -5 12 -22 10 -42 -2 -26 -8 -34 -22 -34 -29 0 -42
28 -28 59 12 28 19 31 40 17z"/>
</g>
</svg>
